SourceSansPro-Italic_0.ufo
<glyph name="Tbar" format="1">
  <advance width="492"/>
  <unicode hex="0166"/>
  <outline>
    <contour>
      <point x="180" y="0" type="line"/>
      <point x="210" y="0" type="line"/>
      <point x="336" y="632" type="line"/>
      <point x="542" y="632" type="line"/>
      <point x="548" y="660" type="line"/>
      <point x="106" y="660" type="line"/>
      <point x="100" y="632" type="line"/>
      <point x="306" y="632" type="line"/>
    </contour>
    <contour>
      <point x="338.0" y="682.0" type="move" name="aboveUC"/>
    </contour>
    <contour>
      <point x="202.0" y="-22.0" type="move" name="belowLC"/>
    </contour>
    <contour>
      <point x="208.0" y="0.0" type="move" name="baseLC"/>
    </contour>
  </outline>
</glyph>
<glyph name="alpha" format="1">
  <advance width="512"/>
  <unicode hex="03B1"/>
  <outline>
    <contour>
      <point x="194" y="14" type="curve" smooth="yes"/>
      <point x="118" y="14"/>
      <point x="74" y="64"/>
      <point x="74" y="162" type="curve" smooth="yes"/>
      <point x="74" y="348"/>
      <point x="192" y="464"/>
      <point x="298" y="464" type="curve" smooth="yes"/>
      <point x="366" y="464"/>
      <point x="398" y="406"/>
      <point x="408" y="298" type="curve"/>
      <point x="380" y="202" type="line"/>
      <point x="356" y="114"/>
      <point x="266" y="14"/>
    </contour>
    <contour>
      <point x="46" y="155" type="curve" smooth="yes"/>
      <point x="46" y="45"/>
      <point x="104" y="-12"/>
      <point x="192" y="-12" type="curve" smooth="yes"/>
      <point x="250" y="-12"/>
      <point x="310" y="33"/>
      <point x="354" y="102" type="curve"/>
      <point x="358" y="102" type="line"/>
      <point x="330" y="19"/>
      <point x="353" y="-12"/>
      <point x="392" y="-12" type="curve" smooth="yes"/>
      <point x="407" y="-12"/>
      <point x="413" y="-10"/>
      <point x="424" y="-6" type="curve"/>
      <point x="420" y="18" type="line"/>
      <point x="410" y="14"/>
      <point x="404" y="14"/>
      <point x="399" y="14" type="curve" smooth="yes"/>
      <point x="385" y="14"/>
      <point x="371" y="26"/>
      <point x="371" y="53" type="curve" smooth="yes"/>
      <point x="371" y="96"/>
      <point x="434" y="302"/>
      <point x="508" y="478" type="curve"/>
      <point x="478" y="478" type="line"/>
      <point x="426" y="342" type="line"/>
      <point x="422" y="342" type="line"/>
      <point x="412" y="452"/>
      <point x="356" y="490"/>
      <point x="300" y="490" type="curve" smooth="yes"/>
      <point x="182" y="490"/>
      <point x="46" y="368"/>
    </contour>
    <contour>
      <point x="316.0" y="502.0" type="move" name="aboveLC"/>
    </contour>
    <contour>
      <point x="236.0" y="-22.0" type="move" name="belowLC"/>
    </contour>
  </outline>
</glyph>
<glyph name="gamma" format="1">
  <advance width="424"/>
  <unicode hex="03B3"/>
  <outline>
    <contour>
      <point x="48" y="482" type="line"/>
      <point x="101" y="390"/>
      <point x="146" y="201"/>
      <point x="146" y="40" type="curve" smooth="yes"/>
      <point x="146" y="-40"/>
      <point x="128" y="-128"/>
      <point x="114" y="-180" type="curve"/>
      <point x="141" y="-183" type="line"/>
      <point x="152" y="-127"/>
      <point x="164" y="-62"/>
      <point x="168" y="-8" type="curve"/>
      <point x="312" y="170"/>
      <point x="389" y="321"/>
      <point x="440" y="478" type="curve"/>
      <point x="414" y="482" type="line"/>
      <point x="373" y="336"/>
      <point x="291" y="185"/>
      <point x="174" y="34" type="curve"/>
      <point x="170" y="34" type="line"/>
      <point x="170" y="202"/>
      <point x="127" y="388"/>
      <point x="74" y="490" type="curve"/>
    </contour>
  </outline>
</glyph>
<glyph name="delta" format="1">
  <advance width="489"/>
  <unicode hex="03B4"/>
  <outline>
    <contour>
      <point x="210" y="-12" type="curve" smooth="yes"/>
      <point x="344" y="-12"/>
      <point x="434" y="108"/>
      <point x="434" y="242" type="curve" smooth="yes"/>
      <point x="434" y="348"/>
      <point x="375" y="405"/>
      <point x="320" y="458" type="curve" smooth="yes"/>
      <point x="260" y="514"/>
      <point x="204" y="572"/>
      <point x="204" y="630" type="curve" smooth="yes"/>
      <point x="204" y="675"/>
      <point x="234" y="708"/>
      <point x="296" y="708" type="curve" smooth="yes"/>
      <point x="344" y="708"/>
      <point x="402" y="690"/>
      <point x="500" y="636" type="curve"/>
      <point x="514" y="664" type="line"/>
      <point x="422" y="710"/>
      <point x="356" y="734"/>
      <point x="298" y="734" type="curve" smooth="yes"/>
      <point x="210" y="734"/>
      <point x="176" y="682"/>
      <point x="176" y="624" type="curve" smooth="yes"/>
      <point x="176" y="568"/>
      <point x="236" y="499"/>
      <point x="300" y="441" type="curve"/>
      <point x="352" y="387"/>
      <point x="406" y="336"/>
      <point x="406" y="235" type="curve" smooth="yes"/>
      <point x="406" y="124"/>
      <point x="328" y="14"/>
      <point x="212" y="14" type="curve" smooth="yes"/>
      <point x="126" y="14"/>
      <point x="64" y="82"/>
      <point x="64" y="176" type="curve" smooth="yes"/>
      <point x="64" y="286"/>
      <point x="155" y="386"/>
      <point x="317" y="428" type="curve"/>
      <point x="302" y="449" type="line"/>
      <point x="132" y="398"/>
      <point x="36" y="307"/>
      <point x="36" y="170" type="curve" smooth="yes"/>
      <point x="36" y="60"/>
      <point x="117" y="-12"/>
    </contour>
  </outline>
</glyph>
<glyph name="epsilon" format="1">
  <advance width="404"/>
  <unicode hex="03B5"/>
  <outline>
    <contour>
      <point x="168" y="-12" type="curve" smooth="yes"/>
      <point x="232" y="-12"/>
      <point x="282" y="2"/>
      <point x="342" y="44" type="curve"/>
      <point x="326" y="66" type="line"/>
      <point x="266" y="26"/>
      <point x="228" y="14"/>
      <point x="170" y="14" type="curve" smooth="yes"/>
      <point x="98" y="14"/>
      <point x="52" y="50"/>
      <point x="52" y="104" type="curve" smooth="yes"/>
      <point x="52" y="184"/>
      <point x="134" y="240"/>
      <point x="292" y="252" type="curve"/>
      <point x="288" y="280" type="line"/>
      <point x="264" y="274"/>
      <point x="250" y="272"/>
      <point x="228" y="272" type="curve" smooth="yes"/>
      <point x="170" y="272"/>
      <point x="126" y="316"/>
      <point x="126" y="366" type="curve" smooth="yes"/>
      <point x="126" y="432"/>
      <point x="186" y="464"/>
      <point x="252" y="464" type="curve" smooth="yes"/>
      <point x="302" y="464"/>
      <point x="336" y="450"/>
      <point x="372" y="412" type="curve"/>
      <point x="392" y="432" type="line"/>
      <point x="360" y="466"/>
      <point x="314" y="490"/>
      <point x="254" y="490" type="curve" smooth="yes"/>
      <point x="166" y="490"/>
      <point x="98" y="442"/>
      <point x="98" y="360" type="curve" smooth="yes"/>
      <point x="98" y="316"/>
      <point x="126" y="282"/>
      <point x="168" y="262" type="curve"/>
      <point x="168" y="258" type="line"/>
      <point x="98" y="234"/>
      <point x="24" y="192"/>
      <point x="24" y="98" type="curve" smooth="yes"/>
      <point x="24" y="36"/>
      <point x="76" y="-12"/>
    </contour>
    <contour>
      <point x="258.0" y="502.0" type="move" name="aboveLC"/>
    </contour>
  </outline>
</glyph>
<glyph name="theta" format="1">
  <advance width="479"/>
  <unicode hex="03B8"/>
  <outline>
    <contour>
      <point x="97" y="353" type="line"/>
      <point x="413" y="353" type="line"/>
      <point x="418" y="379" type="line"/>
      <point x="103" y="379" type="line"/>
    </contour>
    <contour>
      <point x="321" y="735" type="curve" smooth="yes"/>
      <point x="130" y="735"/>
      <point x="62" y="443"/>
      <point x="62" y="214" type="curve" smooth="yes"/>
      <point x="62" y="74"/>
      <point x="106" y="-12"/>
      <point x="192" y="-12" type="curve" smooth="yes"/>
      <point x="383" y="-12"/>
      <point x="451" y="280"/>
      <point x="451" y="509" type="curve" smooth="yes"/>
      <point x="451" y="649"/>
      <point x="407" y="735"/>
    </contour>
    <contour>
      <point x="197" y="14" type="curve" smooth="yes"/>
      <point x="131" y="14"/>
      <point x="92" y="90"/>
      <point x="92" y="219" type="curve" smooth="yes"/>
      <point x="92" y="422"/>
      <point x="156" y="709"/>
      <point x="316" y="709" type="curve" smooth="yes"/>
      <point x="382" y="709"/>
      <point x="421" y="633"/>
      <point x="421" y="504" type="curve" smooth="yes"/>
      <point x="421" y="301"/>
      <point x="357" y="14"/>
    </contour>
  </outline>
</glyph>
<glyph name="mu" format="1">
  <advance width="520"/>
  <unicode hex="03BC"/>
  <outline>
    <contour>
      <point x="356" y="88" type="line"/>
      <point x="350" y="58"/>
      <point x="344" y="36"/>
      <point x="344" y="24" type="curve" smooth="yes"/>
      <point x="344" y="0"/>
      <point x="360" y="-12"/>
      <point x="380" y="-12" type="curve" smooth="yes"/>
      <point x="391" y="-12"/>
      <point x="398" y="-10"/>
      <point x="408" y="-6" type="curve"/>
      <point x="404" y="18" type="line"/>
      <point x="394" y="14"/>
      <point x="391" y="14"/>
      <point x="387" y="14" type="curve" smooth="yes"/>
      <point x="377" y="14"/>
      <point x="372" y="19"/>
      <point x="372" y="28" type="curve" smooth="yes"/>
      <point x="372" y="50"/>
      <point x="412" y="240"/>
      <point x="462" y="478" type="curve"/>
      <point x="434" y="478" type="line"/>
      <point x="366" y="138" type="line"/>
      <point x="290" y="36"/>
      <point x="238" y="14"/>
      <point x="190" y="14" type="curve" smooth="yes"/>
      <point x="140" y="14"/>
      <point x="98" y="36"/>
      <point x="98" y="112" type="curve" smooth="yes"/>
      <point x="98" y="132"/>
      <point x="102" y="162"/>
      <point x="108" y="190" type="curve" smooth="yes"/>
      <point x="168" y="478" type="line"/>
      <point x="140" y="478" type="line"/>
      <point x="6" y="-180" type="line"/>
      <point x="34" y="-180" type="line"/>
      <point x="48" y="-94"/>
      <point x="56" y="-50"/>
      <point x="80" y="70" type="curve"/>
      <point x="96" y="6"/>
      <point x="138" y="-12"/>
      <point x="188" y="-12" type="curve" smooth="yes"/>
      <point x="244" y="-12"/>
      <point x="300" y="20"/>
      <point x="352" y="88" type="curve"/>
    </contour>
  </outline>
</glyph>
<glyph name="omicron" format="1">
  <advance width="500"/>
  <unicode hex="03BF"/>
  <outline>
    <component base="o" xOffset="4"/>
    <contour>
      <point x="318.0" y="502.0" type="move" name="aboveLC"/>
    </contour>
    <contour>
      <point x="188.0" y="-22.0" type="move" name="belowLC"/>
    </contour>
  </outline>
</glyph>
<glyph name="chi" format="1">
  <advance width="425"/>
  <unicode hex="03C7"/>
  <outline>
    <contour>
      <point x="-81" y="-180" type="line"/>
      <point x="-59" y="-192" type="line"/>
      <point x="183" y="136" type="line"/>
      <point x="187" y="136" type="line"/>
      <point x="225" y="17"/>
      <point x="258" y="-75"/>
      <point x="308" y="-192" type="curve"/>
      <point x="336" y="-181" type="line"/>
      <point x="284" y="-66"/>
      <point x="241" y="38"/>
      <point x="204" y="162" type="curve"/>
      <point x="435" y="478" type="line"/>
      <point x="404" y="478" type="line"/>
      <point x="197" y="190" type="line"/>
      <point x="193" y="190" type="line"/>
      <point x="158" y="302"/>
      <point x="126" y="401"/>
      <point x="86" y="490" type="curve"/>
      <point x="56" y="478" type="line"/>
      <point x="105" y="388"/>
      <point x="141" y="278"/>
      <point x="175" y="162" type="curve"/>
    </contour>
  </outline>
</glyph>
<glyph name="A" format="1">
  <advance width="480"/>
  <outline>
    <contour>
      <point x="-46" y="0" type="line"/>
      <point x="-12" y="0" type="line"/>
      <point x="204" y="396" type="line" smooth="yes"/>
      <point x="246" y="474"/>
      <point x="286" y="544"/>
      <point x="326" y="626" type="curve"/>
      <point x="330" y="626" type="line"/>
      <point x="338" y="546"/>
      <point x="348" y="470"/>
      <point x="356" y="396" type="curve" smooth="yes"/>
      <point x="404" y="0" type="line"/>
      <point x="434" y="0" type="line"/>
      <point x="350" y="660" type="line"/>
      <point x="320" y="660" type="line"/>
    </contour>
    <contour>
      <point x="104" y="238" type="line"/>
      <point x="386" y="238" type="line"/>
      <point x="392" y="264" type="line"/>
      <point x="112" y="264" type="line"/>
    </contour>
    <contour>
      <point x="344" y="682" type="move" name="aboveUC"/>
    </contour>
    <contour>
      <point x="212" y="-22" type="move" name="belowLC"/>
    </contour>
    <contour>
      <point x="408" y="0" type="move" name="ogonekUC"/>
    </contour>
  </outline>
</glyph>
<glyph name="Dze" format="1">
  <advance width="488"/>
  <outline>
    <component base="S"/>
    <contour>
      <point x="352.0" y="682.0" type="move" name="aboveUC"/>
    </contour>
    <contour>
      <point x="212.0" y="-30.0" type="move" name="belowLC"/>
    </contour>
    <contour>
      <point x="218.0" y="0.0" type="move" name="baseLC"/>
    </contour>
  </outline>
</glyph>
<glyph name="Delta.math" format="1">
  <advance width="526"/>
  <outline>
    <contour>
      <point x="-28" y="0" type="line"/>
      <point x="440" y="0" type="line"/>
      <point x="444" y="16" type="line"/>
      <point x="362" y="660" type="line"/>
      <point x="332" y="660" type="line"/>
      <point x="-24" y="16" type="line"/>
    </contour>
    <contour>
      <point x="216" y="396" type="line" smooth="yes"/>
      <point x="258" y="474"/>
      <point x="298" y="544"/>
      <point x="338" y="626" type="curve"/>
      <point x="342" y="626" type="line"/>
      <point x="350" y="546"/>
      <point x="360" y="470"/>
      <point x="368" y="396" type="curve" smooth="yes"/>
      <point x="412" y="26" type="line"/>
      <point x="14" y="26" type="line"/>
    </contour>
  </outline>
</glyph>
<glyph name="Eth" format="1">
  <advance width="590"/>
  <outline>
    <contour>
      <point x="324" y="338" type="line"/>
      <point x="330" y="364" type="line"/>
      <point x="132" y="364" type="line"/>
      <point x="60" y="362" type="line"/>
      <point x="54" y="338" type="line"/>
    </contour>
    <component base="D" xOffset="18"/>
  </outline>
</glyph>
<glyph name="Hbar" format="1">
  <advance width="630"/>
  <outline>
    <contour>
      <point x="86" y="520" type="line"/>
      <point x="80" y="496" type="line"/>
      <point x="642" y="496" type="line"/>
      <point x="648" y="522" type="line"/>
      <point x="160" y="522" type="line"/>
    </contour>
    <component base="H" xOffset="14"/>
  </outline>
</glyph>
<glyph name="L" format="1">
  <advance width="432"/>
  <outline>
    <contour>
      <point x="40" y="0" type="line"/>
      <point x="370" y="0" type="line"/>
      <point x="376" y="26" type="line"/>
      <point x="76" y="26" type="line"/>
      <point x="202" y="660" type="line"/>
      <point x="172" y="660" type="line"/>
    </contour>
    <contour>
      <point x="202" y="682" type="move" name="aboveUC"/>
    </contour>
    <contour>
      <point x="218" y="-22" type="move" name="belowLC"/>
    </contour>
  </outline>
</glyph>
<glyph name="Lslash" format="1">
  <advance width="432"/>
  <outline>
    <contour>
      <point x="-2" y="216" type="line"/>
      <point x="96" y="262" type="line"/>
      <point x="122" y="274" type="line"/>
      <point x="336" y="376" type="line"/>
      <point x="342" y="408" type="line"/>
      <point x="128" y="306" type="line"/>
      <point x="102" y="294" type="line"/>
      <point x="4" y="248" type="line"/>
    </contour>
    <component base="L"/>
  </outline>
</glyph>
<glyph name="N" format="1">
  <advance width="600"/>
  <outline>
    <contour>
      <point x="40" y="0" type="line"/>
      <point x="70" y="0" type="line"/>
      <point x="156" y="436" type="line" smooth="yes"/>
      <point x="168" y="496"/>
      <point x="180" y="558"/>
      <point x="190" y="622" type="curve"/>
      <point x="194" y="622" type="line"/>
      <point x="244" y="484" type="line"/>
      <point x="426" y="0" type="line"/>
      <point x="458" y="0" type="line"/>
      <point x="590" y="660" type="line"/>
      <point x="560" y="660" type="line"/>
      <point x="474" y="230" type="line" smooth="yes"/>
      <point x="462" y="168"/>
      <point x="452" y="104"/>
      <point x="442" y="42" type="curve"/>
      <point x="438" y="42" type="line"/>
      <point x="390" y="174" type="line"/>
      <point x="206" y="660" type="line"/>
      <point x="172" y="660" type="line"/>
    </contour>
    <contour>
      <point x="398" y="682" type="move" name="aboveUC"/>
    </contour>
    <contour>
      <point x="260" y="-30" type="move" name="belowLC"/>
    </contour>
  </outline>
</glyph>
<glyph name="OE" format="1">
  <advance width="802"/>
  <outline>
    <contour>
      <point x="332" y="0" type="curve" smooth="yes"/>
      <point x="708" y="0" type="line"/>
      <point x="714" y="26" type="line"/>
      <point x="416" y="26" type="line"/>
      <point x="480" y="338" type="line"/>
      <point x="718" y="338" type="line"/>
      <point x="724" y="364" type="line"/>
      <point x="484" y="364" type="line"/>
      <point x="538" y="634" type="line"/>
      <point x="826" y="634" type="line"/>
      <point x="832" y="660" type="line"/>
      <point x="414" y="660" type="line" smooth="yes"/>
      <point x="182" y="660"/>
      <point x="62" y="480"/>
      <point x="62" y="256" type="curve" smooth="yes"/>
      <point x="62" y="104"/>
      <point x="150" y="0"/>
    </contour>
    <contour>
      <point x="334" y="26" type="line" smooth="yes"/>
      <point x="170" y="26"/>
      <point x="92" y="122"/>
      <point x="92" y="258" type="curve" smooth="yes"/>
      <point x="92" y="458"/>
      <point x="206" y="634"/>
      <point x="412" y="634" type="curve" smooth="yes"/>
      <point x="510" y="634" type="line"/>
      <point x="388" y="26" type="line"/>
    </contour>
    <contour>
      <point x="580" y="682" type="move" name="aboveUC"/>
    </contour>
  </outline>
</glyph>
<glyph name="Oogonek" format="1">
  <advance width="612"/>
  <outline>
    <contour>
      <point x="584" y="398" type="curve" smooth="yes"/>
      <point x="584" y="558"/>
      <point x="516" y="672"/>
      <point x="372" y="672" type="curve" smooth="yes"/>
      <point x="174" y="672"/>
      <point x="62" y="438"/>
      <point x="62" y="262" type="curve" smooth="yes"/>
      <point x="62" y="102"/>
      <point x="130" y="-6"/>
      <point x="264" y="-12" type="curve"/>
      <point x="230" y="-32"/>
      <point x="182" y="-88"/>
      <point x="182" y="-140" type="curve" smooth="yes"/>
      <point x="182" y="-182"/>
      <point x="210" y="-202"/>
      <point x="248" y="-202" type="curve" smooth="yes"/>
      <point x="264" y="-202"/>
      <point x="284" y="-196"/>
      <point x="302" y="-186" type="curve"/>
      <point x="292" y="-164" type="line"/>
      <point x="278" y="-172"/>
      <point x="266" y="-176"/>
      <point x="250" y="-176" type="curve" smooth="yes"/>
      <point x="228" y="-176"/>
      <point x="212" y="-160"/>
      <point x="212" y="-134" type="curve" smooth="yes"/>
      <point x="212" y="-88"/>
      <point x="252" y="-32"/>
      <point x="342" y="-2" type="curve" smooth="yes"/>
      <point x="496" y="46"/>
      <point x="584" y="236"/>
    </contour>
    <contour>
      <point x="370" y="646" type="curve" smooth="yes"/>
      <point x="500" y="646"/>
      <point x="554" y="542"/>
      <point x="554" y="394" type="curve" smooth="yes"/>
      <point x="554" y="238"/>
      <point x="456" y="14"/>
      <point x="276" y="14" type="curve" smooth="yes"/>
      <point x="146" y="14"/>
      <point x="92" y="118"/>
      <point x="92" y="266" type="curve" smooth="yes"/>
      <point x="92" y="422"/>
      <point x="190" y="646"/>
    </contour>
    <contour>
      <point x="406" y="682" type="move" name="aboveUC"/>
    </contour>
  </outline>
</glyph>
<glyph name="Oslash" format="1">
  <advance width="612"/>
  <outline>
    <contour>
      <point x="2" y="-4" type="line"/>
      <point x="24" y="-22" type="line"/>
      <point x="642" y="660" type="line"/>
      <point x="626" y="678" type="line"/>
    </contour>
    <component base="O"/>
    <contour>
      <point x="406" y="682" type="move" name="aboveUC"/>
    </contour>
  </outline>
</glyph>
<glyph name="R" format="1">
  <advance width="522"/>
  <outline>
    <contour>
      <point x="40" y="0" type="line"/>
      <point x="70" y="0" type="line"/>
      <point x="132" y="310" type="line"/>
      <point x="274" y="310" type="line" smooth="yes"/>
      <point x="416" y="310"/>
      <point x="522" y="390"/>
      <point x="522" y="518" type="curve" smooth="yes"/>
      <point x="522" y="618"/>
      <point x="450" y="660"/>
      <point x="332" y="660" type="curve" smooth="yes"/>
      <point x="172" y="660" type="line"/>
    </contour>
    <contour>
      <point x="138" y="336" type="line"/>
      <point x="196" y="634" type="line"/>
      <point x="314" y="634" type="line" smooth="yes"/>
      <point x="432" y="634"/>
      <point x="492" y="602"/>
      <point x="492" y="516" type="curve" smooth="yes"/>
      <point x="492" y="404"/>
      <point x="408" y="336"/>
      <point x="260" y="336" type="curve" smooth="yes"/>
    </contour>
    <contour>
      <point x="272" y="312" type="line"/>
      <point x="400" y="0" type="line"/>
      <point x="434" y="0" type="line"/>
      <point x="300" y="324" type="line"/>
    </contour>
    <contour>
      <point x="364" y="682" type="move" name="aboveUC"/>
    </contour>
    <contour>
      <point x="244" y="-30" type="move" name="belowLC"/>
    </contour>
  </outline>
</glyph>
<glyph name="T" format="1">
  <advance width="492"/>
  <outline>
    <contour>
      <point x="180" y="0" type="line"/>
      <point x="210" y="0" type="line"/>
      <point x="336" y="632" type="line"/>
      <point x="542" y="632" type="line"/>
      <point x="548" y="660" type="line"/>
      <point x="106" y="660" type="line"/>
      <point x="100" y="632" type="line"/>
      <point x="306" y="632" type="line"/>
    </contour>
    <contour>
      <point x="338" y="682" type="move" name="aboveUC"/>
    </contour>
    <contour>
      <point x="202" y="-22" type="move" name="belowLC"/>
    </contour>
    <contour>
      <point x="208" y="0" type="move" name="baseLC"/>
    </contour>
  </outline>
</glyph>
<glyph name="Tse" format="1">
  <advance width="600"/>
  <outline>
    <contour>
      <point x="440" y="0" type="line"/>
      <point x="484" y="0" type="line"/>
      <point x="446" y="-192" type="line"/>
      <point x="470" y="-192" type="line"/>
      <point x="516" y="10" type="line"/>
      <point x="518" y="26" type="line"/>
      <point x="445" y="26" type="line"/>
    </contour>
    <contour>
      <point x="586" y="660" type="line"/>
      <point x="556" y="660" type="line"/>
      <point x="428" y="26" type="line"/>
      <point x="74" y="26" type="line"/>
      <point x="202" y="660" type="line"/>
      <point x="172" y="660" type="line"/>
      <point x="40" y="0" type="line"/>
      <point x="454" y="0" type="line"/>
    </contour>
  </outline>
</glyph>
<glyph name="U" format="1">
  <advance width="594"/>
  <outline>
    <contour>
      <point x="90" y="262" type="line" smooth="yes"/>
      <point x="84" y="230"/>
      <point x="82" y="206"/>
      <point x="82" y="180" type="curve" smooth="yes"/>
      <point x="82" y="58"/>
      <point x="152" y="-12"/>
      <point x="268" y="-12" type="curve" smooth="yes"/>
      <point x="368" y="-12"/>
      <point x="464" y="50"/>
      <point x="500" y="230" type="curve" smooth="yes"/>
      <point x="586" y="660" type="line"/>
      <point x="556" y="660" type="line"/>
      <point x="472" y="238" type="line" smooth="yes"/>
      <point x="440" y="76"/>
      <point x="358" y="14"/>
      <point x="272" y="14" type="curve" smooth="yes"/>
      <point x="166" y="14"/>
      <point x="112" y="78"/>
      <point x="112" y="188" type="curve" smooth="yes"/>
      <point x="112" y="212"/>
      <point x="114" y="238"/>
      <point x="122" y="270" type="curve" smooth="yes"/>
      <point x="200" y="660" type="line"/>
      <point x="170" y="660" type="line"/>
    </contour>
    <contour>
      <point x="394" y="682" type="move" name="aboveUC"/>
    </contour>
    <contour>
      <point x="248" y="-22" type="move" name="belowLC"/>
    </contour>
    <contour>
      <point x="260" y="0" type="move" name="ogonekUC"/>
    </contour>
    <contour>
      <point x="570" y="670" type="move" name="hornLC"/>
    </contour>
  </outline>
</glyph>
<glyph name="Uhorn" format="1">
  <advance width="600"/>
  <outline>
    <contour>
      <point x="579" y="637" type="line"/>
      <point x="656" y="645"/>
      <point x="698" y="692"/>
      <point x="698" y="742" type="curve" smooth="yes"/>
      <point x="698" y="754"/>
      <point x="696" y="764"/>
      <point x="690" y="778" type="curve"/>
      <point x="664" y="766" type="line"/>
      <point x="668" y="752"/>
      <point x="668" y="746"/>
      <point x="668" y="736" type="curve" smooth="yes"/>
      <point x="668" y="690"/>
      <point x="616" y="660"/>
      <point x="558" y="660" type="curve"/>
    </contour>
    <component base="U"/>
    <contour>
      <point x="396" y="682" type="move" name="aboveUC"/>
    </contour>
    <contour>
      <point x="254" y="-22" type="move" name="belowLC"/>
    </contour>
  </outline>
</glyph>
<glyph name="Uogonek" format="1">
  <advance width="594"/>
  <outline>
    <contour>
      <point x="586" y="660" type="line"/>
      <point x="556" y="660" type="line"/>
      <point x="472" y="238" type="line" smooth="yes"/>
      <point x="440" y="76"/>
      <point x="358" y="14"/>
      <point x="272" y="14" type="curve" smooth="yes"/>
      <point x="166" y="14"/>
      <point x="112" y="78"/>
      <point x="112" y="188" type="curve" smooth="yes"/>
      <point x="112" y="212"/>
      <point x="114" y="238"/>
      <point x="122" y="270" type="curve" smooth="yes"/>
      <point x="200" y="660" type="line"/>
      <point x="170" y="660" type="line"/>
      <point x="90" y="262" type="line" smooth="yes"/>
      <point x="84" y="230"/>
      <point x="82" y="206"/>
      <point x="82" y="180" type="curve" smooth="yes"/>
      <point x="82" y="66"/>
      <point x="142" y="-2"/>
      <point x="250" y="-12" type="curve"/>
      <point x="204" y="-46"/>
      <point x="168" y="-98"/>
      <point x="168" y="-140" type="curve" smooth="yes"/>
      <point x="168" y="-182"/>
      <point x="196" y="-202"/>
      <point x="234" y="-202" type="curve" smooth="yes"/>
      <point x="250" y="-202"/>
      <point x="270" y="-196"/>
      <point x="288" y="-186" type="curve"/>
      <point x="278" y="-164" type="line"/>
      <point x="264" y="-172"/>
      <point x="252" y="-176"/>
      <point x="236" y="-176" type="curve" smooth="yes"/>
      <point x="214" y="-176"/>
      <point x="198" y="-160"/>
      <point x="198" y="-134" type="curve" smooth="yes"/>
      <point x="198" y="-94"/>
      <point x="234" y="-35"/>
      <point x="316" y="-8" type="curve" smooth="yes"/>
      <point x="408" y="22"/>
      <point x="470" y="82"/>
      <point x="500" y="230" type="curve" smooth="yes"/>
    </contour>
    <contour>
      <point x="394" y="682" type="move" name="aboveUC"/>
    </contour>
  </outline>
</glyph>
<glyph name="a.supa" format="1">
  <advance width="323"/>
  <outline>
    <contour>
      <point x="62" y="338" type="curve" smooth="yes"/>
      <point x="62" y="288"/>
      <point x="98" y="262"/>
      <point x="142" y="262" type="curve" smooth="yes"/>
      <point x="178" y="262"/>
      <point x="222" y="284"/>
      <point x="252" y="312" type="curve"/>
      <point x="256" y="312" type="line"/>
      <point x="248" y="270" type="line"/>
      <point x="270" y="270" type="line"/>
      <point x="308" y="464" type="line" smooth="yes"/>
      <point x="310" y="476"/>
      <point x="313" y="494"/>
      <point x="313" y="506" type="curve" smooth="yes"/>
      <point x="313" y="570"/>
      <point x="280" y="594"/>
      <point x="222" y="594" type="curve" smooth="yes"/>
      <point x="186" y="594"/>
      <point x="146" y="580"/>
      <point x="114" y="562" type="curve"/>
      <point x="124" y="540" type="line"/>
      <point x="156" y="556"/>
      <point x="190" y="570"/>
      <point x="220" y="570" type="curve" smooth="yes"/>
      <point x="270" y="570"/>
      <point x="287" y="546"/>
      <point x="287" y="504" type="curve" smooth="yes"/>
      <point x="287" y="492"/>
      <point x="286" y="483"/>
      <point x="282" y="468" type="curve"/>
      <point x="154" y="462"/>
      <point x="62" y="427"/>
    </contour>
    <contour>
      <point x="278" y="446" type="curve"/>
      <point x="258" y="344" type="line"/>
      <point x="218" y="308"/>
      <point x="180" y="286"/>
      <point x="144" y="286" type="curve" smooth="yes"/>
      <point x="112" y="286"/>
      <point x="88" y="302"/>
      <point x="88" y="342" type="curve" smooth="yes"/>
      <point x="88" y="410"/>
      <point x="168" y="442"/>
    </contour>
  </outline>
</glyph>
<glyph name="acutecmb.cap" format="1">
  <advance width="0"/>
  <outline>
    <contour>
      <point x="122" y="710" type="line"/>
      <point x="242" y="812" type="line"/>
      <point x="204" y="812" type="line"/>
      <point x="94" y="710" type="line"/>
    </contour>
    <contour>
      <point x="136" y="682" type="move" name="_aboveUC"/>
    </contour>
  </outline>
</glyph>
<glyph name="acutecmb" format="1">
  <advance width="0"/>
  <outline>
    <contour>
      <point x="88" y="570" type="line"/>
      <point x="214" y="704" type="line"/>
      <point x="176" y="704" type="line"/>
      <point x="60" y="570" type="line"/>
    </contour>
    <contour>
      <point x="104" y="502" type="move" name="_aboveLC"/>
    </contour>
  </outline>
</glyph>
<glyph name="alphalatin" format="1">
  <advance width="524"/>
  <outline>
    <component base="a"/>
    <contour>
      <point x="312" y="502" type="move" name="aboveLC"/>
    </contour>
    <contour>
      <point x="222" y="-22" type="move" name="belowLC"/>
    </contour>
  </outline>
</glyph>
<glyph name="arrowleft" format="1">
  <advance width="594"/>
  <outline>
    <contour>
      <point x="279" y="-15" type="line"/>
      <point x="297" y="3" type="line"/>
      <point x="65" y="237" type="line"/>
      <point x="573" y="237" type="line"/>
      <point x="573" y="263" type="line"/>
      <point x="65" y="263" type="line"/>
      <point x="297" y="497" type="line"/>
      <point x="279" y="515" type="line"/>
      <point x="21" y="253" type="line"/>
      <point x="21" y="247" type="line"/>
    </contour>
  </outline>
</glyph>
<glyph name="arrowup" format="1">
  <advance width="594"/>
  <outline>
    <contour>
      <point x="284" y="-26" type="line"/>
      <point x="310" y="-26" type="line"/>
      <point x="310" y="482" type="line"/>
      <point x="544" y="250" type="line"/>
      <point x="562" y="268" type="line"/>
      <point x="300" y="526" type="line"/>
      <point x="294" y="526" type="line"/>
      <point x="32" y="268" type="line"/>
      <point x="50" y="250" type="line"/>
      <point x="284" y="482" type="line"/>
    </contour>
  </outline>
</glyph>
<glyph name="bardbl" format="1">
  <advance width="324"/>
  <outline>
    <contour>
      <point x="-13" y="-250" type="line"/>
      <point x="13" y="-250" type="line"/>
      <point x="213" y="750" type="line"/>
      <point x="187" y="750" type="line"/>
    </contour>
    <contour>
      <point x="101" y="-250" type="line"/>
      <point x="127" y="-250" type="line"/>
      <point x="327" y="750" type="line"/>
      <point x="301" y="750" type="line"/>
    </contour>
  </outline>
</glyph>
<glyph name="braceright" format="1">
  <advance width="262"/>
  <outline>
    <contour>
      <point x="220" y="634" type="curve" smooth="yes"/>
      <point x="220" y="686"/>
      <point x="194" y="708"/>
      <point x="138" y="708" type="curve" smooth="yes"/>
      <point x="108" y="708" type="line"/>
      <point x="102" y="686" type="line"/>
      <point x="132" y="686" type="line" smooth="yes"/>
      <point x="182" y="686"/>
      <point x="196" y="666"/>
      <point x="196" y="626" type="curve" smooth="yes"/>
      <point x="196" y="558"/>
      <point x="140" y="406"/>
      <point x="140" y="336" type="curve" smooth="yes"/>
      <point x="140" y="316"/>
      <point x="144" y="294"/>
      <point x="174" y="282" type="curve"/>
      <point x="174" y="278" type="line"/>
      <point x="132" y="266"/>
      <point x="114" y="230"/>
      <point x="102" y="172" type="curve" smooth="yes"/>
      <point x="90" y="108"/>
      <point x="82" y="38"/>
      <point x="70" y="-22" type="curve" smooth="yes"/>
      <point x="56" y="-94"/>
      <point x="34" y="-130"/>
      <point x="-28" y="-130" type="curve" smooth="yes"/>
      <point x="-60" y="-130" type="line"/>
      <point x="-64" y="-152" type="line"/>
      <point x="-32" y="-152" type="line" smooth="yes"/>
      <point x="38" y="-152"/>
      <point x="72" y="-126"/>
      <point x="92" y="-26" type="curve" smooth="yes"/>
      <point x="106" y="42"/>
      <point x="116" y="120"/>
      <point x="128" y="184" type="curve" smooth="yes"/>
      <point x="136" y="224"/>
      <point x="156" y="266"/>
      <point x="226" y="266" type="curve"/>
      <point x="232" y="290" type="line"/>
      <point x="172" y="290"/>
      <point x="162" y="318"/>
      <point x="162" y="342" type="curve" smooth="yes"/>
      <point x="162" y="408"/>
      <point x="220" y="564"/>
    </contour>
  </outline>
</glyph>
<glyph name="bracketleft" format="1">
  <advance width="262"/>
  <outline>
    <contour>
      <point x="46" y="-130" type="line"/>
      <point x="208" y="686" type="line"/>
      <point x="332" y="686" type="line"/>
      <point x="334" y="708" type="line"/>
      <point x="190" y="708" type="line"/>
      <point x="18" y="-152" type="line"/>
      <point x="162" y="-152" type="line"/>
      <point x="168" y="-130" type="line"/>
    </contour>
  </outline>
</glyph>
<glyph name="brackhalfbotright" format="1">
  <advance width="262"/>
  <outline>
    <contour>
      <point x="144" y="278" type="line"/>
      <point x="62" y="-130" type="line"/>
      <point x="-60" y="-130" type="line"/>
      <point x="-64" y="-152" type="line"/>
      <point x="82" y="-152" type="line"/>
      <point x="168" y="278" type="line"/>
    </contour>
  </outline>
</glyph>
<glyph name="brackhalftopright" format="1">
  <advance width="262"/>
  <outline>
    <contour>
      <point x="168" y="278" type="line"/>
      <point x="254" y="708" type="line"/>
      <point x="108" y="708" type="line"/>
      <point x="104" y="686" type="line"/>
      <point x="226" y="686" type="line"/>
      <point x="146" y="278" type="line"/>
    </contour>
  </outline>
</glyph>
<glyph name="breveacute.cap" format="1">
  <advance width="0"/>
  <outline>
    <contour>
      <point x="126" y="712" type="curve" smooth="yes"/>
      <point x="213" y="712"/>
      <point x="263" y="779"/>
      <point x="280" y="834" type="curve"/>
      <point x="254" y="838" type="line"/>
      <point x="239" y="786"/>
      <point x="197" y="738"/>
      <point x="130" y="738" type="curve" smooth="yes"/>
      <point x="63" y="738"/>
      <point x="41" y="786"/>
      <point x="42" y="838" type="curve"/>
      <point x="16" y="834" type="line"/>
      <point x="13" y="779"/>
      <point x="39" y="712"/>
    </contour>
    <contour>
      <point x="134" y="806" type="line"/>
      <point x="250" y="890" type="line"/>
      <point x="232" y="912" type="line"/>
      <point x="120" y="822" type="line"/>
    </contour>
    <contour>
      <point x="62" y="682" type="move" name="_aboveUC"/>
    </contour>
  </outline>
</glyph>
<glyph name="brevecmb.cyr" format="1">
  <advance width="0"/>
  <outline>
    <contour>
      <point x="114" y="576" type="curve" smooth="yes"/>
      <point x="191" y="576"/>
      <point x="240" y="644"/>
      <point x="254" y="691" type="curve"/>
      <point x="230" y="691" type="line"/>
      <point x="217" y="647"/>
      <point x="177" y="599"/>
      <point x="119" y="599" type="curve" smooth="yes"/>
      <point x="61" y="599"/>
      <point x="40" y="647"/>
      <point x="44" y="691" type="curve"/>
      <point x="21" y="691" type="line"/>
      <point x="15" y="644"/>
      <point x="38" y="576"/>
    </contour>
    <contour>
      <point x="104.0" y="502.0" type="move" name="_aboveLC"/>
    </contour>
  </outline>
</glyph>
<glyph name="brevecmb.cyrcap" format="1">
  <advance width="0"/>
  <outline>
    <contour>
      <point x="126" y="706" type="curve" smooth="yes"/>
      <point x="209" y="706"/>
      <point x="250" y="768"/>
      <point x="268" y="818" type="curve"/>
      <point x="244" y="818" type="line"/>
      <point x="227" y="774"/>
      <point x="188" y="729"/>
      <point x="128" y="729" type="curve" smooth="yes"/>
      <point x="68" y="729"/>
      <point x="40" y="768"/>
      <point x="44" y="818" type="curve"/>
      <point x="20" y="818" type="line"/>
      <point x="14" y="768"/>
      <point x="43" y="706"/>
    </contour>
    <contour>
      <point x="136.0" y="682.0" type="move" name="_aboveUC"/>
    </contour>
  </outline>
</glyph>
<glyph name="brevecmb" format="1">
  <advance width="0"/>
  <outline>
    <contour>
      <point x="114" y="576" type="curve" smooth="yes"/>
      <point x="190" y="576"/>
      <point x="228" y="638"/>
      <point x="246" y="690" type="curve"/>
      <point x="222" y="690" type="line"/>
      <point x="204" y="640"/>
      <point x="166" y="600"/>
      <point x="116" y="600" type="curve" smooth="yes"/>
      <point x="66" y="600"/>
      <point x="46" y="636"/>
      <point x="50" y="690" type="curve"/>
      <point x="28" y="690" type="line"/>
      <point x="24" y="638"/>
      <point x="38" y="576"/>
    </contour>
    <contour>
      <point x="104" y="502" type="move" name="_aboveLC"/>
    </contour>
  </outline>
</glyph>
<glyph name="brevegrave.cap" format="1">
  <advance width="0"/>
  <outline>
    <contour>
      <point x="126" y="710" type="curve" smooth="yes"/>
      <point x="196" y="710"/>
      <point x="238" y="766"/>
      <point x="250" y="808" type="curve"/>
      <point x="226" y="808" type="line"/>
      <point x="212" y="772"/>
      <point x="180" y="734"/>
      <point x="128" y="734" type="curve" smooth="yes"/>
      <point x="78" y="734"/>
      <point x="60" y="770"/>
      <point x="62" y="808" type="curve"/>
      <point x="40" y="808" type="line"/>
      <point x="37" y="767"/>
      <point x="56" y="710"/>
    </contour>
    <contour>
      <point x="148" y="796" type="line"/>
      <point x="172" y="796" type="line"/>
      <point x="116" y="890" type="line"/>
      <point x="86" y="890" type="line"/>
    </contour>
    <contour>
      <point x="62" y="682" type="move" name="_aboveUC"/>
    </contour>
  </outline>
</glyph>
<glyph name="brevegrave" format="1">
  <advance width="0"/>
  <outline>
    <contour>
      <point x="112" y="576" type="curve" smooth="yes"/>
      <point x="188" y="576"/>
      <point x="226" y="638"/>
      <point x="244" y="690" type="curve"/>
      <point x="220" y="690" type="line"/>
      <point x="202" y="640"/>
      <point x="164" y="600"/>
      <point x="114" y="600" type="curve" smooth="yes"/>
      <point x="64" y="600"/>
      <point x="44" y="636"/>
      <point x="48" y="690" type="curve"/>
      <point x="26" y="690" type="line"/>
      <point x="22" y="638"/>
      <point x="36" y="576"/>
    </contour>
    <contour>
      <point x="134" y="664" type="line"/>
      <point x="158" y="664" type="line"/>
      <point x="104" y="772" type="line"/>
      <point x="74" y="772" type="line"/>
    </contour>
    <contour>
      <point x="61" y="502" type="move" name="_aboveLC"/>
    </contour>
  </outline>
</glyph>
<glyph name="brevehoi.cap" format="1">
  <advance width="0"/>
  <outline>
    <contour>
      <point x="126" y="710" type="curve" smooth="yes"/>
      <point x="196" y="710"/>
      <point x="238" y="766"/>
      <point x="250" y="808" type="curve"/>
      <point x="226" y="808" type="line"/>
      <point x="212" y="772"/>
      <point x="180" y="734"/>
      <point x="128" y="734" type="curve" smooth="yes"/>
      <point x="78" y="734"/>
      <point x="60" y="770"/>
      <point x="62" y="808" type="curve"/>
      <point x="40" y="808" type="line"/>
      <point x="37" y="767"/>
      <point x="56" y="710"/>
    </contour>
    <contour>
      <point x="120" y="792" type="line"/>
      <point x="175" y="808"/>
      <point x="208" y="834"/>
      <point x="208" y="880" type="curve" smooth="yes"/>
      <point x="208" y="908"/>
      <point x="178" y="932"/>
      <point x="122" y="932" type="curve"/>
      <point x="118" y="910" type="line"/>
      <point x="166" y="908"/>
      <point x="182" y="896"/>
      <point x="182" y="874" type="curve" smooth="yes"/>
      <point x="182" y="846"/>
      <point x="162" y="825"/>
      <point x="112" y="812" type="curve"/>
    </contour>
    <contour>
      <point x="62" y="682" type="move" name="_aboveUC"/>
    </contour>
  </outline>
</glyph>
<glyph name="brevehoi" format="1">
  <advance width="0"/>
  <outline>
    <contour>
      <point x="112" y="576" type="curve" smooth="yes"/>
      <point x="188" y="576"/>
      <point x="226" y="638"/>
      <point x="244" y="690" type="curve"/>
      <point x="220" y="690" type="line"/>
      <point x="202" y="640"/>
      <point x="164" y="600"/>
      <point x="114" y="600" type="curve" smooth="yes"/>
      <point x="64" y="600"/>
      <point x="44" y="636"/>
      <point x="48" y="690" type="curve"/>
      <point x="26" y="690" type="line"/>
      <point x="22" y="638"/>
      <point x="36" y="576"/>
    </contour>
    <contour>
      <point x="114" y="670" type="line"/>
      <point x="164" y="688"/>
      <point x="196" y="711"/>
      <point x="196" y="756" type="curve" smooth="yes"/>
      <point x="196" y="788"/>
      <point x="168" y="810"/>
      <point x="114" y="814" type="curve"/>
      <point x="110" y="792" type="line"/>
      <point x="156" y="786"/>
      <point x="170" y="776"/>
      <point x="170" y="750" type="curve" smooth="yes"/>
      <point x="170" y="723"/>
      <point x="152" y="706"/>
      <point x="106" y="690" type="curve"/>
    </contour>
    <contour>
      <point x="61" y="502" type="move" name="_aboveLC"/>
    </contour>
  </outline>
</glyph>
<glyph name="brevetilde.cap" format="1">
  <advance width="0"/>
  <outline>
    <contour>
      <point x="126" y="710" type="curve" smooth="yes"/>
      <point x="196" y="710"/>
      <point x="238" y="766"/>
      <point x="250" y="808" type="curve"/>
      <point x="226" y="808" type="line"/>
      <point x="212" y="772"/>
      <point x="180" y="734"/>
      <point x="128" y="734" type="curve" smooth="yes"/>
      <point x="78" y="734"/>
      <point x="60" y="770"/>
      <point x="62" y="808" type="curve"/>
      <point x="40" y="808" type="line"/>
      <point x="37" y="767"/>
      <point x="56" y="710"/>
    </contour>
    <contour>
      <point x="208" y="838" type="curve" smooth="yes"/>
      <point x="248" y="838"/>
      <point x="276" y="880"/>
      <point x="283" y="918" type="curve"/>
      <point x="261" y="918" type="line"/>
      <point x="250" y="884"/>
      <point x="236" y="862"/>
      <point x="211" y="862" type="curve" smooth="yes"/>
      <point x="172" y="862"/>
      <point x="158" y="920"/>
      <point x="112" y="920" type="curve" smooth="yes"/>
      <point x="72" y="920"/>
      <point x="44" y="878"/>
      <point x="37" y="840" type="curve"/>
      <point x="59" y="840" type="line"/>
      <point x="70" y="874"/>
      <point x="84" y="896"/>
      <point x="109" y="896" type="curve" smooth="yes"/>
      <point x="148" y="896"/>
      <point x="162" y="838"/>
    </contour>
    <contour>
      <point x="62" y="682" type="move" name="_aboveUC"/>
    </contour>
  </outline>
</glyph>
<glyph name="brevetilde" format="1">
  <advance width="0"/>
  <outline>
    <contour>
      <point x="114" y="570" type="curve" smooth="yes"/>
      <point x="208" y="570"/>
      <point x="255" y="628"/>
      <point x="270" y="672" type="curve"/>
      <point x="244" y="676" type="line"/>
      <point x="232" y="638"/>
      <point x="188" y="596"/>
      <point x="119" y="596" type="curve" smooth="yes"/>
      <point x="50" y="596"/>
      <point x="22" y="638"/>
      <point x="24" y="676" type="curve"/>
      <point x="-2" y="672" type="line"/>
      <point x="-5" y="628"/>
      <point x="20" y="570"/>
    </contour>
    <contour>
      <point x="12" y="704" type="curve"/>
      <point x="35" y="702" type="line"/>
      <point x="45" y="732"/>
      <point x="55" y="748"/>
      <point x="78" y="748" type="curve" smooth="yes"/>
      <point x="123" y="748"/>
      <point x="150" y="706"/>
      <point x="210" y="706" type="curve" smooth="yes"/>
      <point x="254" y="706"/>
      <point x="274" y="745"/>
      <point x="282" y="776" type="curve"/>
      <point x="258" y="778" type="line"/>
      <point x="248" y="748"/>
      <point x="238" y="732"/>
      <point x="215" y="732" type="curve" smooth="yes"/>
      <point x="169" y="732"/>
      <point x="144" y="774"/>
      <point x="83" y="774" type="curve" smooth="yes"/>
      <point x="39" y="774"/>
      <point x="20" y="735"/>
    </contour>
    <contour>
      <point x="104" y="502" type="move" name="_aboveLC"/>
    </contour>
  </outline>
</glyph>
<glyph name="brokenbar" format="1">
  <advance width="212"/>
  <outline>
    <contour>
      <point x="100" y="274" type="line"/>
      <point x="126" y="274" type="line"/>
      <point x="126" y="750" type="line"/>
      <point x="100" y="750" type="line"/>
    </contour>
    <contour>
      <point x="100" y="220" type="line"/>
      <point x="100" y="-250" type="line"/>
      <point x="126" y="-250" type="line"/>
      <point x="126" y="220" type="line"/>
    </contour>
  </outline>
</glyph>
<glyph name="c.sups" format="1">
  <advance width="288"/>
  <outline>
    <contour>
      <point x="64" y="388" type="curve" smooth="yes"/>
      <point x="64" y="310"/>
      <point x="112" y="262"/>
      <point x="182" y="262" type="curve" smooth="yes"/>
      <point x="222" y="262"/>
      <point x="254" y="278"/>
      <point x="276" y="294" type="curve"/>
      <point x="264" y="314" type="line"/>
      <point x="242" y="300"/>
      <point x="214" y="286"/>
      <point x="184" y="286" type="curve" smooth="yes"/>
      <point x="132" y="286"/>
      <point x="90" y="322"/>
      <point x="90" y="392" type="curve" smooth="yes"/>
      <point x="90" y="468"/>
      <point x="150" y="570"/>
      <point x="232" y="570" type="curve" smooth="yes"/>
      <point x="262" y="570"/>
      <point x="282" y="560"/>
      <point x="302" y="538" type="curve"/>
      <point x="320" y="556" type="line"/>
      <point x="298" y="580"/>
      <point x="272" y="594"/>
      <point x="236" y="594" type="curve" smooth="yes"/>
      <point x="134" y="594"/>
      <point x="64" y="484"/>
    </contour>
  </outline>
</glyph>
<glyph name="caroncmb.cap" format="1">
  <advance width="0"/>
  <outline>
    <contour>
      <point x="114" y="710" type="line"/>
      <point x="138" y="710" type="line"/>
      <point x="250" y="812" type="line"/>
      <point x="220" y="812" type="line"/>
      <point x="130" y="736" type="line"/>
      <point x="126" y="736" type="line"/>
      <point x="68" y="812" type="line"/>
      <point x="42" y="812" type="line"/>
    </contour>
    <contour>
      <point x="136" y="682" type="move" name="_aboveUC"/>
    </contour>
  </outline>
</glyph>
<glyph name="caroncmb" format="1">
  <advance width="0"/>
  <outline>
    <contour>
      <point x="104" y="570" type="line"/>
      <point x="122" y="570" type="line"/>
      <point x="244" y="704" type="line"/>
      <point x="216" y="704" type="line"/>
      <point x="120" y="604" type="line"/>
      <point x="116" y="604" type="line"/>
      <point x="60" y="704" type="line"/>
      <point x="36" y="704" type="line"/>
    </contour>
    <contour>
      <point x="104" y="502" type="move" name="_aboveLC"/>
    </contour>
  </outline>
</glyph>
<glyph name="ceilingleft" format="1">
  <advance width="262"/>
  <outline>
    <contour>
      <point x="72" y="0" type="line"/>
      <point x="204" y="666" type="line"/>
      <point x="326" y="666" type="line"/>
      <point x="330" y="688" type="line"/>
      <point x="184" y="688" type="line"/>
      <point x="48" y="0" type="line"/>
    </contour>
  </outline>
</glyph>
<glyph name="ceilingright" format="1">
  <advance width="262"/>
  <outline>
    <contour>
      <point x="110" y="0" type="line"/>
      <point x="250" y="688" type="line"/>
      <point x="104" y="688" type="line"/>
      <point x="100" y="666" type="line"/>
      <point x="222" y="666" type="line"/>
      <point x="88" y="0" type="line"/>
    </contour>
  </outline>
</glyph>
<glyph name="che" format="1">
  <advance width="504"/>
  <outline>
    <contour>
      <point x="392" y="478" type="line"/>
      <point x="364" y="478" type="line"/>
      <point x="332" y="322" type="line"/>
      <point x="260" y="248"/>
      <point x="207" y="216"/>
      <point x="164" y="216" type="curve" smooth="yes"/>
      <point x="107" y="216"/>
      <point x="86" y="248"/>
      <point x="86" y="310" type="curve" smooth="yes"/>
      <point x="86" y="330"/>
      <point x="88" y="344"/>
      <point x="94" y="374" type="curve" smooth="yes"/>
      <point x="116" y="478" type="line"/>
      <point x="88" y="478" type="line"/>
      <point x="66" y="370" type="line" smooth="yes"/>
      <point x="60" y="342"/>
      <point x="58" y="330"/>
      <point x="58" y="306" type="curve" smooth="yes"/>
      <point x="58" y="238"/>
      <point x="85" y="190"/>
      <point x="160" y="190" type="curve" smooth="yes"/>
      <point x="216" y="190"/>
      <point x="263" y="230"/>
      <point x="320" y="282" type="curve"/>
      <point x="324" y="282" type="line"/>
      <point x="268" y="0" type="line"/>
      <point x="296" y="0" type="line"/>
    </contour>
  </outline>
</glyph>
<glyph name="circumflexacute" format="1">
  <advance width="0"/>
  <outline>
    <contour>
      <point x="10" y="574" type="line"/>
      <point x="132" y="654" type="line"/>
      <point x="136" y="654" type="line"/>
      <point x="222" y="574" type="line"/>
      <point x="238" y="590" type="line"/>
      <point x="148" y="684" type="line"/>
      <point x="120" y="684" type="line"/>
      <point x="-2" y="592" type="line"/>
    </contour>
    <contour>
      <point x="227" y="640" type="line"/>
      <point x="346" y="740" type="line"/>
      <point x="324" y="762" type="line"/>
      <point x="210" y="658" type="line"/>
    </contour>
    <contour>
      <point x="104" y="502" type="move" name="_aboveLC"/>
    </contour>
  </outline>
</glyph>
<glyph name="circumflexbreve.cap" format="1">
  <advance width="0"/>
  <outline>
    <contour>
      <point x="-48" y="710" type="line"/>
      <point x="-18" y="710" type="line"/>
      <point x="66" y="780" type="line"/>
      <point x="70" y="780" type="line"/>
      <point x="126" y="710" type="line"/>
      <point x="152" y="710" type="line"/>
      <point x="82" y="806" type="line"/>
      <point x="58" y="806" type="line"/>
    </contour>
    <contour>
      <point x="72" y="834" type="curve" smooth="yes"/>
      <point x="142" y="834"/>
      <point x="180" y="880"/>
      <point x="192" y="918" type="curve"/>
      <point x="168" y="918" type="line"/>
      <point x="154" y="887"/>
      <point x="126" y="858"/>
      <point x="74" y="858" type="curve" smooth="yes"/>
      <point x="24" y="858"/>
      <point x="10" y="885"/>
      <point x="12" y="918" type="curve"/>
      <point x="-10" y="918" type="line"/>
      <point x="-13" y="881"/>
      <point x="2" y="834"/>
    </contour>
    <contour>
      <point x="62" y="682" type="move" name="_aboveUC"/>
    </contour>
  </outline>
</glyph>
<glyph name="circumflexcmb.cap" format="1">
  <advance width="0"/>
  <outline>
    <contour>
      <point x="50" y="710" type="line"/>
      <point x="140" y="786" type="line"/>
      <point x="144" y="786" type="line"/>
      <point x="202" y="710" type="line"/>
      <point x="228" y="710" type="line"/>
      <point x="156" y="812" type="line"/>
      <point x="132" y="812" type="line"/>
      <point x="20" y="710" type="line"/>
    </contour>
    <contour>
      <point x="136" y="683" type="move" name="_aboveUC"/>
    </contour>
  </outline>
</glyph>
<glyph name="circumflexcmb" format="1">
  <advance width="0"/>
  <outline>
    <contour>
      <point x="8" y="570" type="line"/>
      <point x="36" y="570" type="line"/>
      <point x="132" y="670" type="line"/>
      <point x="136" y="670" type="line"/>
      <point x="192" y="570" type="line"/>
      <point x="216" y="570" type="line"/>
      <point x="148" y="704" type="line"/>
      <point x="130" y="704" type="line"/>
    </contour>
    <contour>
      <point x="104" y="502" type="move" name="_aboveLC"/>
    </contour>
    <contour>
      <point x="144" y="710" type="move" name="aboveLC"/>
    </contour>
  </outline>
</glyph>
<glyph name="circumflexgrave" format="1">
  <advance width="0"/>
  <outline>
    <contour>
      <point x="10" y="574" type="line"/>
      <point x="132" y="654" type="line"/>
      <point x="136" y="654" type="line"/>
      <point x="222" y="574" type="line"/>
      <point x="238" y="590" type="line"/>
      <point x="148" y="684" type="line"/>
      <point x="120" y="684" type="line"/>
      <point x="-2" y="592" type="line"/>
    </contour>
    <contour>
      <point x="26" y="640" type="line"/>
      <point x="46" y="656" type="line"/>
      <point x="-46" y="768" type="line"/>
      <point x="-72" y="748" type="line"/>
    </contour>
    <contour>
      <point x="62" y="502" type="move" name="_aboveLC"/>
    </contour>
  </outline>
</glyph>
<glyph name="circumflexhoi.cap" format="1">
  <advance width="0"/>
  <outline>
    <contour>
      <point x="34" y="710" type="line"/>
      <point x="144" y="778" type="line"/>
      <point x="148" y="778" type="line"/>
      <point x="226" y="710" type="line"/>
      <point x="242" y="724" type="line"/>
      <point x="162" y="808" type="line"/>
      <point x="134" y="808" type="line"/>
      <point x="22" y="726" type="line"/>
    </contour>
    <contour>
      <point x="235" y="760" type="line"/>
      <point x="270.154241891" y="769.765067192"/>
      <point x="313.002634449" y="787.018880217"/>
      <point x="319" y="830" type="curve" smooth="yes"/>
      <point x="328.991051389" y="877.957046667"/>
      <point x="282.180241811" y="893.954606084"/>
      <point x="229" y="896" type="curve"/>
      <point x="225" y="872" type="line"/>
      <point x="273.003867097" y="869.999838871"/>
      <point x="297.26365964" y="859.406184749"/>
      <point x="291" y="826" type="curve" smooth="yes"/>
      <point x="287" y="802"/>
      <point x="261" y="790"/>
      <point x="229" y="782" type="curve"/>
    </contour>
    <contour>
      <point x="62" y="682" type="move" name="_aboveUC"/>
    </contour>
  </outline>
</glyph>
<glyph name="circumflexhoi" format="1">
  <advance width="0"/>
  <outline>
    <contour>
      <point x="4" y="570" type="line"/>
      <point x="84" y="648" type="line"/>
      <point x="88" y="648" type="line"/>
      <point x="136" y="570" type="line"/>
      <point x="160" y="570" type="line"/>
      <point x="100" y="682" type="line"/>
      <point x="82" y="682" type="line"/>
      <point x="-24" y="570" type="line"/>
    </contour>
    <contour>
      <point x="176" y="626" type="line"/>
      <point x="230" y="642"/>
      <point x="264" y="668"/>
      <point x="264" y="714" type="curve" smooth="yes"/>
      <point x="264" y="746"/>
      <point x="234" y="770"/>
      <point x="178" y="774" type="curve"/>
      <point x="174" y="752" type="line"/>
      <point x="222" y="746"/>
      <point x="238" y="734"/>
      <point x="238" y="708" type="curve" smooth="yes"/>
      <point x="238" y="680"/>
      <point x="218" y="660"/>
      <point x="168" y="646" type="curve"/>
    </contour>
    <contour>
      <point x="62" y="502" type="move" name="_aboveLC"/>
    </contour>
  </outline>
</glyph>
<glyph name="circumflextilde" format="1">
  <advance width="0"/>
  <outline>
    <contour>
      <point x="-4" y="570" type="line"/>
      <point x="82" y="634" type="line"/>
      <point x="86" y="634" type="line"/>
      <point x="148" y="570" type="line"/>
      <point x="172" y="570" type="line"/>
      <point x="100" y="664" type="line"/>
      <point x="76" y="664" type="line"/>
      <point x="-34" y="570" type="line"/>
    </contour>
    <contour>
      <point x="-14" y="702" type="curve"/>
      <point x="8" y="702" type="line"/>
      <point x="16" y="728"/>
      <point x="38" y="750"/>
      <point x="54" y="750" type="curve" smooth="yes"/>
      <point x="94" y="750"/>
      <point x="98" y="700"/>
      <point x="152" y="700" type="curve" smooth="yes"/>
      <point x="184" y="700"/>
      <point x="212" y="736"/>
      <point x="222" y="772" type="curve"/>
      <point x="200" y="772" type="line"/>
      <point x="192" y="746"/>
      <point x="170" y="724"/>
      <point x="154" y="724" type="curve" smooth="yes"/>
      <point x="114" y="724"/>
      <point x="110" y="774"/>
      <point x="56" y="774" type="curve" smooth="yes"/>
      <point x="24" y="774"/>
      <point x="-4" y="738"/>
    </contour>
    <contour>
      <point x="62" y="502" type="move" name="_aboveLC"/>
    </contour>
  </outline>
</glyph>
<glyph name="colonmonetary" format="1">
  <advance width="456"/>
  <outline>
    <contour>
      <point x="370" y="750" type="line"/>
      <point x="344" y="750" type="line"/>
      <point x="76" y="-110" type="line"/>
      <point x="102" y="-110" type="line"/>
    </contour>
    <contour>
      <point x="466" y="750" type="line"/>
      <point x="440" y="750" type="line"/>
      <point x="172" y="-110" type="line"/>
      <point x="198" y="-110" type="line"/>
    </contour>
    <contour>
      <point x="344" y="652" type="curve" smooth="yes"/>
      <point x="200" y="652"/>
      <point x="66" y="476"/>
      <point x="66" y="222" type="curve" smooth="yes"/>
      <point x="66" y="82"/>
      <point x="130" y="-12"/>
      <point x="238" y="-12" type="curve" smooth="yes"/>
      <point x="311" y="-12"/>
      <point x="360" y="22"/>
      <point x="398" y="60" type="curve"/>
      <point x="380" y="80" type="line"/>
      <point x="343" y="44"/>
      <point x="298" y="14"/>
      <point x="240" y="14" type="curve" smooth="yes"/>
      <point x="148" y="14"/>
      <point x="94" y="98"/>
      <point x="94" y="228" type="curve" smooth="yes"/>
      <point x="94" y="462"/>
      <point x="216" y="626"/>
      <point x="342" y="626" type="curve" smooth="yes"/>
      <point x="402" y="626"/>
      <point x="432" y="590"/>
      <point x="456" y="542" type="curve"/>
      <point x="480" y="556" type="line"/>
      <point x="456" y="606"/>
      <point x="416" y="652"/>
    </contour>
  </outline>
</glyph>
<glyph name="commabelowcmb.alt" format="1">
  <advance width="0"/>
  <outline>
    <contour>
      <point x="128" y="542" type="curve"/>
      <point x="140" y="564" type="line"/>
      <point x="120" y="570"/>
      <point x="98" y="578"/>
      <point x="98" y="604" type="curve" smooth="yes"/>
      <point x="98" y="640"/>
      <point x="144" y="660"/>
      <point x="200" y="672" type="curve"/>
      <point x="196" y="692" type="line"/>
      <point x="134" y="682"/>
      <point x="72" y="654"/>
      <point x="72" y="598" type="curve" smooth="yes"/>
      <point x="72" y="568"/>
      <point x="98" y="552"/>
    </contour>
    <contour>
      <point x="58" y="502" type="move" name="_aboveLC"/>
    </contour>
  </outline>
</glyph>
<glyph name="commabelowcmb" format="1">
  <advance width="0"/>
  <outline>
    <contour>
      <point x="-102" y="-208" type="line"/>
      <point x="-40" y="-198"/>
      <point x="22" y="-170"/>
      <point x="22" y="-114" type="curve" smooth="yes"/>
      <point x="22" y="-84"/>
      <point x="-4" y="-68"/>
      <point x="-34" y="-58" type="curve"/>
      <point x="-46" y="-80" type="line"/>
      <point x="-26" y="-86"/>
      <point x="-4" y="-94"/>
      <point x="-4" y="-120" type="curve" smooth="yes"/>
      <point x="-4" y="-156"/>
      <point x="-50" y="-176"/>
      <point x="-106" y="-188" type="curve"/>
    </contour>
    <contour>
      <point x="-6" y="-30" type="move" name="_belowLC"/>
    </contour>
  </outline>
</glyph>
<glyph name="commaturnedabovecmb" format="1">
  <advance width="0"/>
  <outline>
    <contour>
      <point x="108" y="558" type="line"/>
      <point x="98" y="608" type="line"/>
      <point x="106" y="642"/>
      <point x="124" y="670"/>
      <point x="172" y="690" type="curve"/>
      <point x="164" y="712" type="line"/>
      <point x="94" y="684"/>
      <point x="68" y="642"/>
      <point x="68" y="594" type="curve" smooth="yes"/>
      <point x="68" y="566"/>
      <point x="82" y="542"/>
      <point x="102" y="542" type="curve" smooth="yes"/>
      <point x="126" y="542"/>
      <point x="142" y="554"/>
      <point x="142" y="580" type="curve" smooth="yes"/>
      <point x="142" y="598"/>
      <point x="128" y="612"/>
      <point x="112" y="612" type="curve" smooth="yes"/>
      <point x="102" y="612"/>
      <point x="90" y="610"/>
      <point x="78" y="596" type="curve"/>
    </contour>
    <contour>
      <point x="104" y="502" type="move" name="_aboveLC"/>
    </contour>
  </outline>
</glyph>
<glyph name="dblgravecmb" format="1">
  <advance width="0"/>
  <outline>
    <contour>
      <point x="32" y="570" type="line"/>
      <point x="56" y="570" type="line"/>
      <point x="10" y="706" type="line"/>
      <point x="-22" y="706" type="line"/>
    </contour>
    <contour>
      <point x="154" y="570" type="line"/>
      <point x="178" y="570" type="line"/>
      <point x="132" y="706" type="line"/>
      <point x="100" y="706" type="line"/>
    </contour>
    <contour>
      <point x="104" y="502" type="move" name="_aboveLC"/>
    </contour>
  </outline>
</glyph>
<glyph name="diamondblack" format="1">
  <advance width="262"/>
  <outline>
    <contour>
      <point x="132" y="146" type="line"/>
      <point x="248" y="264" type="line"/>
      <point x="132" y="382" type="line"/>
      <point x="16" y="264" type="line"/>
    </contour>
  </outline>
</glyph>
<glyph name="dieresisacute" format="1">
  <advance width="0"/>
  <outline>
    <contour>
      <point x="66" y="706" type="line"/>
      <point x="94" y="706" type="line"/>
      <point x="190" y="800" type="line"/>
      <point x="152" y="800" type="line"/>
    </contour>
    <contour>
      <point x="8" y="602" type="curve" smooth="yes"/>
      <point x="24" y="602"/>
      <point x="40" y="618"/>
      <point x="40" y="638" type="curve" smooth="yes"/>
      <point x="40" y="656"/>
      <point x="30" y="666"/>
      <point x="14" y="666" type="curve" smooth="yes"/>
      <point x="-2" y="666"/>
      <point x="-18" y="650"/>
      <point x="-18" y="628" type="curve" smooth="yes"/>
      <point x="-18" y="612"/>
      <point x="-8" y="602"/>
    </contour>
    <contour>
      <point x="154" y="602" type="curve" smooth="yes"/>
      <point x="170" y="602"/>
      <point x="186" y="618"/>
      <point x="186" y="638" type="curve" smooth="yes"/>
      <point x="186" y="656"/>
      <point x="176" y="666"/>
      <point x="160" y="666" type="curve" smooth="yes"/>
      <point x="144" y="666"/>
      <point x="128" y="650"/>
      <point x="128" y="628" type="curve" smooth="yes"/>
      <point x="128" y="612"/>
      <point x="138" y="602"/>
    </contour>
    <contour>
      <point x="62" y="502" type="move" name="_aboveLC"/>
    </contour>
  </outline>
</glyph>
<glyph name="dieresisbelowcmb" format="1">
  <advance width="0"/>
  <outline>
    <component base="dieresiscmb" xOffset="-156" yOffset="-790"/>
    <contour>
      <point x="-6" y="-30" type="move" name="_belowLC"/>
    </contour>
  </outline>
</glyph>
<glyph name="dieresiscaron.cap" format="1">
  <advance width="0"/>
  <outline>
    <contour>
      <point x="48" y="726" type="curve" smooth="yes"/>
      <point x="64" y="726"/>
      <point x="80" y="742"/>
      <point x="80" y="762" type="curve" smooth="yes"/>
      <point x="80" y="780"/>
      <point x="70" y="790"/>
      <point x="54" y="790" type="curve" smooth="yes"/>
      <point x="38" y="790"/>
      <point x="22" y="774"/>
      <point x="22" y="752" type="curve" smooth="yes"/>
      <point x="22" y="736"/>
      <point x="32" y="726"/>
    </contour>
    <contour>
      <point x="214" y="726" type="curve" smooth="yes"/>
      <point x="230" y="726"/>
      <point x="246" y="742"/>
      <point x="246" y="762" type="curve" smooth="yes"/>
      <point x="246" y="780"/>
      <point x="236" y="790"/>
      <point x="220" y="790" type="curve" smooth="yes"/>
      <point x="204" y="790"/>
      <point x="188" y="774"/>
      <point x="188" y="752" type="curve" smooth="yes"/>
      <point x="188" y="736"/>
      <point x="198" y="726"/>
    </contour>
    <contour>
      <point x="134" y="826" type="line"/>
      <point x="162" y="826" type="line"/>
      <point x="274" y="908" type="line"/>
      <point x="262" y="924" type="line"/>
      <point x="152" y="856" type="line"/>
      <point x="148" y="856" type="line"/>
      <point x="70" y="924" type="line"/>
      <point x="54" y="910" type="line"/>
    </contour>
    <contour>
      <point x="136" y="682" type="move" name="_aboveUC"/>
    </contour>
  </outline>
</glyph>
<glyph name="dieresiscmb.cap" format="1">
  <advance width="0"/>
  <outline>
    <contour>
      <point x="58" y="726" type="curve" smooth="yes"/>
      <point x="74" y="726"/>
      <point x="90" y="742"/>
      <point x="90" y="762" type="curve" smooth="yes"/>
      <point x="90" y="780"/>
      <point x="80" y="790"/>
      <point x="64" y="790" type="curve" smooth="yes"/>
      <point x="48" y="790"/>
      <point x="32" y="774"/>
      <point x="32" y="752" type="curve" smooth="yes"/>
      <point x="32" y="736"/>
      <point x="42" y="726"/>
    </contour>
    <contour>
      <point x="204" y="726" type="curve" smooth="yes"/>
      <point x="220" y="726"/>
      <point x="236" y="742"/>
      <point x="236" y="762" type="curve" smooth="yes"/>
      <point x="236" y="780"/>
      <point x="226" y="790"/>
      <point x="210" y="790" type="curve" smooth="yes"/>
      <point x="194" y="790"/>
      <point x="178" y="774"/>
      <point x="178" y="752" type="curve" smooth="yes"/>
      <point x="178" y="736"/>
      <point x="188" y="726"/>
    </contour>
    <contour>
      <point x="136" y="682" type="move" name="_aboveUC"/>
    </contour>
  </outline>
</glyph>
<glyph name="dieresisgrave.cap" format="1">
  <advance width="0"/>
  <outline>
    <contour>
      <point x="82" y="826" type="line"/>
      <point x="108" y="826" type="line"/>
      <point x="28" y="928" type="line"/>
      <point x="-4" y="928" type="line"/>
    </contour>
    <contour>
      <point x="-18" y="726" type="curve" smooth="yes"/>
      <point x="4" y="726"/>
      <point x="18" y="744"/>
      <point x="18" y="764" type="curve" smooth="yes"/>
      <point x="18" y="780"/>
      <point x="6" y="792"/>
      <point x="-8" y="792" type="curve" smooth="yes"/>
      <point x="-28" y="792"/>
      <point x="-44" y="772"/>
      <point x="-44" y="754" type="curve" smooth="yes"/>
      <point x="-44" y="736"/>
      <point x="-32" y="726"/>
    </contour>
    <contour>
      <point x="130" y="726" type="curve" smooth="yes"/>
      <point x="150" y="726"/>
      <point x="166" y="744"/>
      <point x="166" y="764" type="curve" smooth="yes"/>
      <point x="166" y="780"/>
      <point x="154" y="792"/>
      <point x="140" y="792" type="curve" smooth="yes"/>
      <point x="118" y="792"/>
      <point x="104" y="772"/>
      <point x="104" y="754" type="curve" smooth="yes"/>
      <point x="104" y="736"/>
      <point x="114" y="726"/>
    </contour>
    <contour>
      <point x="62" y="682" type="move" name="_aboveUC"/>
    </contour>
  </outline>
</glyph>
<glyph name="dieresisgrave" format="1">
  <advance width="0"/>
  <outline>
    <contour>
      <point x="104" y="706" type="line"/>
      <point x="128" y="706" type="line"/>
      <point x="68" y="800" type="line"/>
      <point x="34" y="800" type="line"/>
    </contour>
    <contour>
      <point x="8" y="602" type="curve" smooth="yes"/>
      <point x="24" y="602"/>
      <point x="40" y="618"/>
      <point x="40" y="638" type="curve" smooth="yes"/>
      <point x="40" y="656"/>
      <point x="30" y="666"/>
      <point x="14" y="666" type="curve" smooth="yes"/>
      <point x="-2" y="666"/>
      <point x="-18" y="650"/>
      <point x="-18" y="628" type="curve" smooth="yes"/>
      <point x="-18" y="612"/>
      <point x="-8" y="602"/>
    </contour>
    <contour>
      <point x="154" y="602" type="curve" smooth="yes"/>
      <point x="170" y="602"/>
      <point x="186" y="618"/>
      <point x="186" y="638" type="curve" smooth="yes"/>
      <point x="186" y="656"/>
      <point x="176" y="666"/>
      <point x="160" y="666" type="curve" smooth="yes"/>
      <point x="144" y="666"/>
      <point x="128" y="650"/>
      <point x="128" y="628" type="curve" smooth="yes"/>
      <point x="128" y="612"/>
      <point x="138" y="602"/>
    </contour>
    <contour>
      <point x="62" y="502" type="move" name="_aboveLC"/>
    </contour>
  </outline>
</glyph>
<glyph name="dieresismacron.cap" format="1">
  <advance width="0"/>
  <outline>
    <contour>
      <point x="52" y="726" type="curve" smooth="yes"/>
      <point x="72" y="726"/>
      <point x="86" y="744"/>
      <point x="86" y="764" type="curve" smooth="yes"/>
      <point x="86" y="780"/>
      <point x="76" y="792"/>
      <point x="60" y="792" type="curve" smooth="yes"/>
      <point x="40" y="792"/>
      <point x="26" y="772"/>
      <point x="26" y="754" type="curve" smooth="yes"/>
      <point x="26" y="736"/>
      <point x="36" y="726"/>
    </contour>
    <contour>
      <point x="40" y="852" type="line"/>
      <point x="270" y="852" type="line"/>
      <point x="276" y="878" type="line"/>
      <point x="46" y="878" type="line"/>
    </contour>
    <contour>
      <point x="218" y="726" type="curve" smooth="yes"/>
      <point x="238" y="726"/>
      <point x="254" y="744"/>
      <point x="254" y="764" type="curve" smooth="yes"/>
      <point x="254" y="780"/>
      <point x="242" y="792"/>
      <point x="228" y="792" type="curve" smooth="yes"/>
      <point x="208" y="792"/>
      <point x="192" y="772"/>
      <point x="192" y="754" type="curve" smooth="yes"/>
      <point x="192" y="736"/>
      <point x="204" y="726"/>
    </contour>
    <contour>
      <point x="136" y="682" type="move" name="_aboveUC"/>
    </contour>
  </outline>
</glyph>
<glyph name="dieresismacron" format="1">
  <advance width="0"/>
  <outline>
    <contour>
      <point x="34" y="744" type="line"/>
      <point x="264" y="744" type="line"/>
      <point x="270" y="770" type="line"/>
      <point x="40" y="770" type="line"/>
    </contour>
    <contour>
      <point x="40" y="602" type="curve" smooth="yes"/>
      <point x="56" y="602"/>
      <point x="72" y="618"/>
      <point x="72" y="638" type="curve" smooth="yes"/>
      <point x="72" y="656"/>
      <point x="62" y="666"/>
      <point x="46" y="666" type="curve" smooth="yes"/>
      <point x="30" y="666"/>
      <point x="14" y="650"/>
      <point x="14" y="628" type="curve" smooth="yes"/>
      <point x="14" y="612"/>
      <point x="24" y="602"/>
    </contour>
    <contour>
      <point x="206" y="602" type="curve" smooth="yes"/>
      <point x="222" y="602"/>
      <point x="238" y="618"/>
      <point x="238" y="638" type="curve" smooth="yes"/>
      <point x="238" y="656"/>
      <point x="228" y="666"/>
      <point x="212" y="666" type="curve" smooth="yes"/>
      <point x="196" y="666"/>
      <point x="180" y="650"/>
      <point x="180" y="628" type="curve" smooth="yes"/>
      <point x="180" y="612"/>
      <point x="190" y="602"/>
    </contour>
    <contour>
      <point x="104.0" y="502.0" type="move" name="_aboveLC"/>
    </contour>
  </outline>
</glyph>
<glyph name="dotbelowcmb" format="1">
  <advance width="0"/>
  <outline>
    <contour>
      <point x="-36" y="-200" type="curve" smooth="yes"/>
      <point x="-18" y="-200"/>
      <point x="0" y="-184"/>
      <point x="0" y="-162" type="curve" smooth="yes"/>
      <point x="0" y="-144"/>
      <point x="-12" y="-132"/>
      <point x="-28" y="-132" type="curve" smooth="yes"/>
      <point x="-46" y="-132"/>
      <point x="-64" y="-148"/>
      <point x="-64" y="-172" type="curve" smooth="yes"/>
      <point x="-64" y="-188"/>
      <point x="-52" y="-200"/>
    </contour>
    <contour>
      <point x="-6" y="-30" type="move" name="_belowLC"/>
    </contour>
  </outline>
</glyph>
<glyph name="dotlessj" format="1">
  <advance width="214"/>
  <outline>
    <contour>
      <point x="168" y="478" type="line"/>
      <point x="140" y="478" type="line"/>
      <point x="22" y="-104" type="line" smooth="yes"/>
      <point x="8" y="-166"/>
      <point x="-18" y="-208"/>
      <point x="-58" y="-208" type="curve" smooth="yes"/>
      <point x="-84" y="-208"/>
      <point x="-94" y="-202"/>
      <point x="-106" y="-194" type="curve"/>
      <point x="-118" y="-218" type="line"/>
      <point x="-104" y="-226"/>
      <point x="-88" y="-234"/>
      <point x="-60" y="-234" type="curve" smooth="yes"/>
      <point x="0" y="-234"/>
      <point x="34" y="-184"/>
      <point x="52" y="-98" type="curve" smooth="yes"/>
    </contour>
    <contour>
      <point x="160" y="502" type="move" name="aboveLC"/>
    </contour>
  </outline>
</glyph>
<glyph name="dze" format="1">
  <advance width="384"/>
  <outline>
    <component base="s"/>
    <contour>
      <point x="248.0" y="502.0" type="move" name="aboveLC"/>
    </contour>
    <contour>
      <point x="166.0" y="-22.0" type="move" name="belowLC"/>
    </contour>
    <contour>
      <point x="166.0" y="0.0" type="move" name="baseLC"/>
    </contour>
  </outline>
</glyph>
<glyph name="dzhe" format="1">
  <advance width="504"/>
  <outline>
    <contour>
      <point x="178" y="-172" type="line"/>
      <point x="208" y="-50" type="line"/>
      <point x="186" y="-50" type="line"/>
      <point x="148" y="-172" type="line"/>
    </contour>
    <component base="u"/>
  </outline>
</glyph>
<glyph name="e.sups" format="1">
  <advance width="316"/>
  <outline>
    <contour>
      <point x="64" y="394" type="curve" smooth="yes"/>
      <point x="64" y="308"/>
      <point x="110" y="262"/>
      <point x="184" y="262" type="curve" smooth="yes"/>
      <point x="226" y="262"/>
      <point x="260" y="280"/>
      <point x="284" y="294" type="curve"/>
      <point x="272" y="316" type="line"/>
      <point x="250" y="302"/>
      <point x="222" y="286"/>
      <point x="186" y="286" type="curve" smooth="yes"/>
      <point x="114" y="286"/>
      <point x="80" y="342"/>
      <point x="94" y="426" type="curve"/>
      <point x="320" y="426" type="line"/>
      <point x="326" y="442"/>
      <point x="330" y="460"/>
      <point x="330" y="482" type="curve" smooth="yes"/>
      <point x="330" y="536"/>
      <point x="308" y="594"/>
      <point x="230" y="594" type="curve" smooth="yes"/>
      <point x="148" y="594"/>
      <point x="64" y="512"/>
    </contour>
    <contour>
      <point x="100" y="450" type="line"/>
      <point x="116" y="520"/>
      <point x="176" y="570"/>
      <point x="228" y="570" type="curve" smooth="yes"/>
      <point x="282" y="570"/>
      <point x="304" y="528"/>
      <point x="304" y="484" type="curve" smooth="yes"/>
      <point x="304" y="474"/>
      <point x="304" y="464"/>
      <point x="300" y="450" type="curve"/>
    </contour>
  </outline>
</glyph>
<glyph name="eacute.sups" format="1">
  <advance width="316"/>
  <outline>
    <contour>
      <point x="200" y="646" type="line"/>
      <point x="226" y="646" type="line"/>
      <point x="312" y="736" type="line"/>
      <point x="278" y="736" type="line"/>
    </contour>
    <component base="e.sups" xOffset="2" yOffset="10"/>
  </outline>
</glyph>
<glyph name="ef" format="1">
  <advance width="669"/>
  <outline>
    <contour>
      <point x="166" y="-12" type="curve" smooth="yes"/>
      <point x="206" y="-12"/>
      <point x="246" y="18"/>
      <point x="278" y="60" type="curve"/>
      <point x="258" y="-42" type="line"/>
      <point x="222" y="-223" type="line"/>
      <point x="249" y="-223" type="line"/>
      <point x="285" y="-42" type="line"/>
      <point x="307" y="60" type="line"/>
      <point x="335" y="16"/>
      <point x="359" y="-12"/>
      <point x="389" y="-12" type="curve" smooth="yes"/>
      <point x="505" y="-12"/>
      <point x="621" y="121"/>
      <point x="621" y="321" type="curve" smooth="yes"/>
      <point x="621" y="423"/>
      <point x="581" y="490"/>
      <point x="495" y="490" type="curve" smooth="yes"/>
      <point x="460" y="490"/>
      <point x="413" y="462"/>
      <point x="377" y="417" type="curve"/>
      <point x="397" y="519" type="line"/>
      <point x="438" y="723" type="line"/>
      <point x="411" y="723" type="line"/>
      <point x="370" y="519" type="line"/>
      <point x="350" y="418" type="line"/>
      <point x="322" y="456"/>
      <point x="301" y="490"/>
      <point x="266" y="490" type="curve" smooth="yes"/>
      <point x="149" y="490"/>
      <point x="35" y="355"/>
      <point x="35" y="164" type="curve" smooth="yes"/>
      <point x="35" y="51"/>
      <point x="83" y="-12"/>
    </contour>
    <contour>
      <point x="172" y="14" type="curve" smooth="yes"/>
      <point x="101" y="14"/>
      <point x="65" y="77"/>
      <point x="65" y="170" type="curve" smooth="yes"/>
      <point x="65" y="326"/>
      <point x="160" y="464"/>
      <point x="258" y="464" type="curve" smooth="yes"/>
      <point x="292" y="464"/>
      <point x="317" y="447"/>
      <point x="344" y="389" type="curve"/>
      <point x="284" y="90" type="line"/>
      <point x="242" y="31"/>
      <point x="205" y="14"/>
    </contour>
    <contour>
      <point x="312" y="88" type="curve"/>
      <point x="371" y="389" type="line"/>
      <point x="415" y="448"/>
      <point x="458" y="464"/>
      <point x="489" y="464" type="curve" smooth="yes"/>
      <point x="563" y="464"/>
      <point x="592" y="401"/>
      <point x="592" y="318" type="curve" smooth="yes"/>
      <point x="592" y="153"/>
      <point x="501" y="14"/>
      <point x="397" y="14" type="curve" smooth="yes"/>
      <point x="372" y="14"/>
      <point x="342" y="29"/>
    </contour>
  </outline>
</glyph>
<glyph name="egrave.sups" format="1">
  <advance width="316"/>
  <outline>
    <contour>
      <point x="246" y="646" type="line"/>
      <point x="268" y="646" type="line"/>
      <point x="228" y="736" type="line"/>
      <point x="198" y="736" type="line"/>
    </contour>
    <component base="e.sups" xOffset="2" yOffset="10"/>
  </outline>
</glyph>
<glyph name="emdash" format="1">
  <advance width="768"/>
  <outline>
    <contour>
      <point x="36" y="238" type="line"/>
      <point x="726" y="238" type="line"/>
      <point x="732" y="264" type="line"/>
      <point x="42" y="264" type="line"/>
    </contour>
  </outline>
</glyph>
<glyph name="endash" format="1">
  <advance width="462"/>
  <outline>
    <contour>
      <point x="36" y="238" type="line"/>
      <point x="418" y="238" type="line"/>
      <point x="426" y="264" type="line"/>
      <point x="42" y="264" type="line"/>
    </contour>
  </outline>
</glyph>
<glyph name="es" format="1">
  <advance width="428"/>
  <outline>
    <component base="c"/>
    <contour>
      <point x="302.0" y="502.0" type="move" name="aboveLC"/>
    </contour>
    <contour>
      <point x="216.0" y="-22.0" type="move" name="belowLC"/>
    </contour>
    <contour>
      <point x="196.0" y="0.0" type="move" name="baseLC"/>
    </contour>
  </outline>
</glyph>
<glyph name="esdescender" format="1">
  <advance width="428"/>
  <outline>
    <contour>
      <point x="178" y="-172" type="line"/>
      <point x="208" y="-50" type="line"/>
      <point x="186" y="-50" type="line"/>
      <point x="148" y="-172" type="line"/>
    </contour>
    <component base="c"/>
  </outline>
</glyph>
<glyph name="f_f_t" format="1">
  <advance width="736"/>
  <outline>
    <contour>
      <point x="76" y="452" type="line"/>
      <point x="592" y="452" type="line"/>
      <point x="524" y="124" type="line" smooth="yes"/>
      <point x="521" y="108"/>
      <point x="520" y="96"/>
      <point x="520" y="78" type="curve" smooth="yes"/>
      <point x="520" y="30"/>
      <point x="544" y="-12"/>
      <point x="616" y="-12" type="curve" smooth="yes"/>
      <point x="644" y="-12"/>
      <point x="670" y="0"/>
      <point x="688" y="10" type="curve"/>
      <point x="678" y="32" type="line"/>
      <point x="662" y="24"/>
      <point x="642" y="14"/>
      <point x="618" y="14" type="curve" smooth="yes"/>
      <point x="564" y="14"/>
      <point x="548" y="38"/>
      <point x="548" y="84" type="curve" smooth="yes"/>
      <point x="548" y="98"/>
      <point x="550" y="110"/>
      <point x="552" y="122" type="curve" smooth="yes"/>
      <point x="620" y="452" type="line"/>
      <point x="752" y="452" type="line"/>
      <point x="758" y="478" type="line"/>
      <point x="626" y="478" type="line"/>
      <point x="654" y="616" type="line"/>
      <point x="630" y="616" type="line"/>
      <point x="598" y="478" type="line"/>
      <point x="145" y="478" type="line"/>
      <point x="80" y="474" type="line"/>
    </contour>
    <contour>
      <point x="48" y="0" type="line"/>
      <point x="76" y="0" type="line"/>
      <point x="194" y="588" type="line"/>
      <point x="207" y="646"/>
      <point x="243" y="698"/>
      <point x="298" y="698" type="curve" smooth="yes"/>
      <point x="330" y="698"/>
      <point x="347" y="690"/>
      <point x="366" y="680" type="curve"/>
      <point x="380" y="704" type="line"/>
      <point x="357" y="714"/>
      <point x="337" y="724"/>
      <point x="300" y="724" type="curve" smooth="yes"/>
      <point x="239" y="724"/>
      <point x="188" y="682"/>
      <point x="166" y="588" type="curve"/>
    </contour>
    <contour>
      <point x="294" y="0" type="line"/>
      <point x="322" y="0" type="line"/>
      <point x="442" y="598" type="line" smooth="yes"/>
      <point x="454" y="656"/>
      <point x="486" y="708"/>
      <point x="536" y="708" type="curve" smooth="yes"/>
      <point x="562" y="708"/>
      <point x="578" y="700"/>
      <point x="594" y="690" type="curve"/>
      <point x="608" y="714" type="line"/>
      <point x="588" y="724"/>
      <point x="570" y="734"/>
      <point x="538" y="734" type="curve" smooth="yes"/>
      <point x="482" y="734"/>
      <point x="434" y="692"/>
      <point x="414" y="598" type="curve"/>
    </contour>
  </outline>
</glyph>
<glyph name="f.sups" format="1">
  <advance width="172"/>
  <outline>
    <contour>
      <point x="66" y="410" type="line"/>
      <point x="92" y="410" type="line"/>
      <point x="170" y="802" type="line" smooth="yes"/>
      <point x="178" y="840"/>
      <point x="202" y="868"/>
      <point x="232" y="868" type="curve" smooth="yes"/>
      <point x="250" y="868"/>
      <point x="262" y="862"/>
      <point x="272" y="856" type="curve"/>
      <point x="284" y="878" type="line"/>
      <point x="266" y="888"/>
      <point x="252" y="892"/>
      <point x="234" y="892" type="curve" smooth="yes"/>
      <point x="192" y="892"/>
      <point x="156" y="862"/>
      <point x="144" y="798" type="curve" smooth="yes"/>
    </contour>
    <contour>
      <point x="82" y="702" type="line"/>
      <point x="226" y="702" type="line"/>
      <point x="230" y="726" type="line"/>
      <point x="130" y="726" type="line"/>
      <point x="86" y="724" type="line"/>
    </contour>
  </outline>
</glyph>
<glyph name="f_t" format="1">
  <advance width="490"/>
  <outline>
    <contour>
      <point x="76" y="452" type="line"/>
      <point x="346" y="452" type="line"/>
      <point x="278" y="124" type="line" smooth="yes"/>
      <point x="275" y="108"/>
      <point x="274" y="96"/>
      <point x="274" y="78" type="curve" smooth="yes"/>
      <point x="274" y="30"/>
      <point x="298" y="-12"/>
      <point x="370" y="-12" type="curve" smooth="yes"/>
      <point x="398" y="-12"/>
      <point x="424" y="0"/>
      <point x="442" y="10" type="curve"/>
      <point x="432" y="32" type="line"/>
      <point x="416" y="24"/>
      <point x="396" y="14"/>
      <point x="372" y="14" type="curve" smooth="yes"/>
      <point x="318" y="14"/>
      <point x="302" y="38"/>
      <point x="302" y="84" type="curve" smooth="yes"/>
      <point x="302" y="98"/>
      <point x="304" y="110"/>
      <point x="306" y="122" type="curve" smooth="yes"/>
      <point x="374" y="452" type="line"/>
      <point x="506" y="452" type="line"/>
      <point x="512" y="478" type="line"/>
      <point x="380" y="478" type="line"/>
      <point x="408" y="616" type="line"/>
      <point x="384" y="616" type="line"/>
      <point x="352" y="478" type="line"/>
      <point x="145" y="478" type="line"/>
      <point x="80" y="474" type="line"/>
    </contour>
    <contour>
      <point x="48" y="0" type="line"/>
      <point x="76" y="0" type="line"/>
      <point x="196" y="598" type="line" smooth="yes"/>
      <point x="208" y="656"/>
      <point x="240" y="708"/>
      <point x="290" y="708" type="curve" smooth="yes"/>
      <point x="316" y="708"/>
      <point x="332" y="700"/>
      <point x="348" y="690" type="curve"/>
      <point x="362" y="714" type="line"/>
      <point x="342" y="724"/>
      <point x="324" y="734"/>
      <point x="292" y="734" type="curve" smooth="yes"/>
      <point x="236" y="734"/>
      <point x="188" y="692"/>
      <point x="168" y="598" type="curve" smooth="yes"/>
    </contour>
  </outline>
</glyph>
<glyph name="fisheye" format="1">
  <advance width="392"/>
  <outline>
    <contour>
      <point x="196" y="96" type="curve" smooth="yes"/>
      <point x="276" y="96"/>
      <point x="352" y="158"/>
      <point x="352" y="264" type="curve" smooth="yes"/>
      <point x="352" y="370"/>
      <point x="276" y="432"/>
      <point x="196" y="432" type="curve" smooth="yes"/>
      <point x="116" y="432"/>
      <point x="40" y="370"/>
      <point x="40" y="264" type="curve" smooth="yes"/>
      <point x="40" y="158"/>
      <point x="116" y="96"/>
    </contour>
    <contour>
      <point x="196" y="124" type="curve" smooth="yes"/>
      <point x="134" y="124"/>
      <point x="70" y="172"/>
      <point x="70" y="264" type="curve" smooth="yes"/>
      <point x="70" y="356"/>
      <point x="134" y="404"/>
      <point x="196" y="404" type="curve" smooth="yes"/>
      <point x="258" y="404"/>
      <point x="322" y="356"/>
      <point x="322" y="264" type="curve" smooth="yes"/>
      <point x="322" y="172"/>
      <point x="258" y="124"/>
    </contour>
    <contour>
      <point x="196" y="212" type="curve" smooth="yes"/>
      <point x="220" y="212"/>
      <point x="244" y="232"/>
      <point x="244" y="264" type="curve" smooth="yes"/>
      <point x="244" y="296"/>
      <point x="220" y="316"/>
      <point x="196" y="316" type="curve" smooth="yes"/>
      <point x="172" y="316"/>
      <point x="148" y="296"/>
      <point x="148" y="264" type="curve" smooth="yes"/>
      <point x="148" y="232"/>
      <point x="172" y="212"/>
    </contour>
  </outline>
</glyph>
<glyph name="five" format="1">
  <advance width="456"/>
  <outline>
    <contour>
      <point x="-2" y="92" type="line"/>
      <point x="24" y="46"/>
      <point x="76" y="-12"/>
      <point x="170" y="-12" type="curve" smooth="yes"/>
      <point x="292" y="-12"/>
      <point x="398" y="84"/>
      <point x="398" y="232" type="curve" smooth="yes"/>
      <point x="398" y="344"/>
      <point x="328" y="400"/>
      <point x="232" y="400" type="curve" smooth="yes"/>
      <point x="190" y="400"/>
      <point x="156" y="388"/>
      <point x="130" y="374" type="curve"/>
      <point x="196" y="614" type="line"/>
      <point x="436" y="614" type="line"/>
      <point x="442" y="640" type="line"/>
      <point x="176" y="640" type="line"/>
      <point x="96" y="352" type="line"/>
      <point x="114" y="338" type="line"/>
      <point x="154" y="360"/>
      <point x="184" y="374"/>
      <point x="232" y="374" type="curve" smooth="yes"/>
      <point x="314" y="374"/>
      <point x="370" y="326"/>
      <point x="370" y="226" type="curve" smooth="yes"/>
      <point x="370" y="100"/>
      <point x="278" y="14"/>
      <point x="176" y="14" type="curve" smooth="yes"/>
      <point x="84" y="14"/>
      <point x="46" y="66"/>
      <point x="20" y="108" type="curve"/>
    </contour>
  </outline>
</glyph>
<glyph name="fraction" format="1">
  <advance width="76"/>
  <outline>
    <contour>
      <point x="-178" y="-12" type="line"/>
      <point x="314" y="672" type="line"/>
      <point x="284" y="672" type="line"/>
      <point x="-208" y="-12" type="line"/>
    </contour>
  </outline>
</glyph>
<glyph name="g" format="1">
  <advance width="518"/>
  <outline>
    <contour>
      <point x="166" y="-234" type="curve" smooth="yes"/>
      <point x="274" y="-234"/>
      <point x="342" y="-162"/>
      <point x="366" y="-48" type="curve" smooth="yes"/>
      <point x="472" y="478" type="line"/>
      <point x="448" y="478" type="line"/>
      <point x="430" y="410" type="line"/>
      <point x="426" y="410" type="line"/>
      <point x="400" y="458"/>
      <point x="357" y="490"/>
      <point x="300" y="490" type="curve" smooth="yes"/>
      <point x="174" y="490"/>
      <point x="46" y="344"/>
      <point x="46" y="166" type="curve" smooth="yes"/>
      <point x="46" y="56"/>
      <point x="102" y="-4"/>
      <point x="184" y="-4" type="curve" smooth="yes"/>
      <point x="252" y="-4"/>
      <point x="310" y="32"/>
      <point x="366" y="86" type="curve"/>
      <point x="342" y="-30" type="line" smooth="yes"/>
      <point x="320" y="-136"/>
      <point x="266" y="-208"/>
      <point x="168" y="-208" type="curve" smooth="yes"/>
      <point x="108" y="-208"/>
      <point x="60" y="-180"/>
      <point x="24" y="-146" type="curve"/>
      <point x="6" y="-168" type="line"/>
      <point x="46" y="-202"/>
      <point x="96" y="-234"/>
    </contour>
    <contour>
      <point x="186" y="22" type="curve" smooth="yes"/>
      <point x="116" y="22"/>
      <point x="74" y="72"/>
      <point x="74" y="172" type="curve" smooth="yes"/>
      <point x="74" y="314"/>
      <point x="184" y="464"/>
      <point x="298" y="464" type="curve" smooth="yes"/>
      <point x="346" y="464"/>
      <point x="385" y="438"/>
      <point x="424" y="372" type="curve"/>
      <point x="372" y="124" type="line"/>
      <point x="314" y="62"/>
      <point x="242" y="22"/>
    </contour>
    <contour>
      <point x="312" y="502" type="move" name="aboveLC"/>
    </contour>
    <contour>
      <point x="160" y="-254" type="move" name="belowLC"/>
    </contour>
  </outline>
</glyph>
<glyph name="g.supa" format="1">
  <advance width="312"/>
  <outline>
    <contour>
      <point x="91" y="452" type="curve" smooth="yes"/>
      <point x="91" y="423"/>
      <point x="102" y="400"/>
      <point x="120" y="384" type="curve"/>
      <point x="120" y="380" type="line"/>
      <point x="98" y="362"/>
      <point x="88" y="348"/>
      <point x="88" y="326" type="curve" smooth="yes"/>
      <point x="88" y="308"/>
      <point x="96" y="292"/>
      <point x="106" y="286" type="curve"/>
      <point x="106" y="282" type="line"/>
      <point x="72" y="266"/>
      <point x="26" y="238"/>
      <point x="26" y="192" type="curve" smooth="yes"/>
      <point x="26" y="133"/>
      <point x="84" y="118"/>
      <point x="130" y="118" type="curve" smooth="yes"/>
      <point x="210" y="118"/>
      <point x="286" y="152"/>
      <point x="286" y="218" type="curve" smooth="yes"/>
      <point x="286" y="262"/>
      <point x="260" y="278"/>
      <point x="180" y="290" type="curve" smooth="yes"/>
      <point x="126" y="298"/>
      <point x="114" y="306"/>
      <point x="114" y="333" type="curve" smooth="yes"/>
      <point x="114" y="348"/>
      <point x="127" y="363"/>
      <point x="140" y="373" type="curve"/>
      <point x="150" y="368"/>
      <point x="160" y="366"/>
      <point x="174" y="366" type="curve" smooth="yes"/>
      <point x="249" y="366"/>
      <point x="303" y="431"/>
      <point x="303" y="508" type="curve" smooth="yes"/>
      <point x="303" y="526"/>
      <point x="298" y="548"/>
      <point x="287" y="562" type="curve"/>
      <point x="354" y="562" type="line"/>
      <point x="359" y="586" type="line"/>
      <point x="259" y="586" type="line"/>
      <point x="248" y="592"/>
      <point x="235" y="594"/>
      <point x="220" y="594" type="curve" smooth="yes"/>
      <point x="145" y="594"/>
      <point x="91" y="530"/>
    </contour>
    <contour>
      <point x="130" y="272" type="curve"/>
      <point x="148" y="268"/>
      <point x="158" y="266"/>
      <point x="171" y="265" type="curve" smooth="yes"/>
      <point x="238" y="258"/>
      <point x="260" y="246"/>
      <point x="260" y="214" type="curve" smooth="yes"/>
      <point x="260" y="175"/>
      <point x="203" y="142"/>
      <point x="132" y="142" type="curve" smooth="yes"/>
      <point x="90" y="142"/>
      <point x="52" y="157"/>
      <point x="52" y="196" type="curve" smooth="yes"/>
      <point x="52" y="229"/>
      <point x="90" y="258"/>
    </contour>
    <contour>
      <point x="218" y="570" type="curve" smooth="yes"/>
      <point x="258" y="570"/>
      <point x="279" y="544"/>
      <point x="279" y="502" type="curve" smooth="yes"/>
      <point x="279" y="445"/>
      <point x="234" y="390"/>
      <point x="176" y="390" type="curve" smooth="yes"/>
      <point x="137" y="390"/>
      <point x="116" y="416"/>
      <point x="116" y="459" type="curve" smooth="yes"/>
      <point x="116" y="515"/>
      <point x="161" y="570"/>
    </contour>
  </outline>
</glyph>
<glyph name="g.sups" format="1">
  <advance width="344"/>
  <outline>
    <contour>
      <point x="336" y="586" type="line"/>
      <point x="324" y="544" type="line"/>
      <point x="320" y="544" type="line"/>
      <point x="302" y="580"/>
      <point x="272" y="594"/>
      <point x="240" y="594" type="curve" smooth="yes"/>
      <point x="150" y="594"/>
      <point x="64" y="498"/>
      <point x="64" y="384" type="curve" smooth="yes"/>
      <point x="64" y="314"/>
      <point x="102" y="274"/>
      <point x="158" y="274" type="curve" smooth="yes"/>
      <point x="202" y="274"/>
      <point x="240" y="294"/>
      <point x="274" y="322" type="curve"/>
      <point x="278" y="322" type="line"/>
      <point x="266" y="262" type="line" smooth="yes"/>
      <point x="250" y="190"/>
      <point x="212" y="142"/>
      <point x="152" y="142" type="curve" smooth="yes"/>
      <point x="116" y="142"/>
      <point x="80" y="160"/>
      <point x="56" y="182" type="curve"/>
      <point x="40" y="162" type="line"/>
      <point x="72" y="134"/>
      <point x="112" y="118"/>
      <point x="150" y="118" type="curve" smooth="yes"/>
      <point x="224" y="118"/>
      <point x="275" y="176"/>
      <point x="291" y="256" type="curve" smooth="yes"/>
      <point x="356" y="586" type="line"/>
    </contour>
    <contour>
      <point x="160" y="298" type="curve" smooth="yes"/>
      <point x="120" y="298"/>
      <point x="90" y="328"/>
      <point x="90" y="388" type="curve" smooth="yes"/>
      <point x="90" y="476"/>
      <point x="164" y="570"/>
      <point x="238" y="570" type="curve" smooth="yes"/>
      <point x="266" y="570"/>
      <point x="292" y="556"/>
      <point x="316" y="512" type="curve"/>
      <point x="286" y="360" type="line"/>
      <point x="248" y="324"/>
      <point x="200" y="298"/>
    </contour>
  </outline>
</glyph>
<glyph name="gammalatin" format="1">
  <advance width="776"/>
  <outline>
    <contour>
      <point x="734" y="478" type="line"/>
      <point x="706" y="478" type="line"/>
      <point x="634" y="120" type="line"/>
      <point x="564" y="46"/>
      <point x="498" y="14"/>
      <point x="466" y="14" type="curve" smooth="yes"/>
      <point x="404" y="14"/>
      <point x="378" y="46"/>
      <point x="378" y="108" type="curve" smooth="yes"/>
      <point x="378" y="128"/>
      <point x="380" y="142"/>
      <point x="386" y="172" type="curve" smooth="yes"/>
      <point x="448" y="478" type="line"/>
      <point x="420" y="478" type="line"/>
      <point x="348" y="120" type="line"/>
      <point x="278" y="46"/>
      <point x="212" y="14"/>
      <point x="180" y="14" type="curve" smooth="yes"/>
      <point x="118" y="14"/>
      <point x="92" y="46"/>
      <point x="92" y="108" type="curve" smooth="yes"/>
      <point x="92" y="128"/>
      <point x="94" y="142"/>
      <point x="100" y="172" type="curve" smooth="yes"/>
      <point x="162" y="478" type="line"/>
      <point x="134" y="478" type="line"/>
      <point x="72" y="168" type="line" smooth="yes"/>
      <point x="66" y="140"/>
      <point x="64" y="128"/>
      <point x="64" y="104" type="curve" smooth="yes"/>
      <point x="64" y="36"/>
      <point x="96" y="-12"/>
      <point x="176" y="-12" type="curve" smooth="yes"/>
      <point x="222" y="-12"/>
      <point x="284" y="24"/>
      <point x="352" y="90" type="curve"/>
      <point x="354" y="36"/>
      <point x="382" y="-12"/>
      <point x="462" y="-12" type="curve" smooth="yes"/>
      <point x="508" y="-12"/>
      <point x="568" y="26"/>
      <point x="622" y="78" type="curve"/>
      <point x="626" y="78" type="line"/>
      <point x="614" y="0" type="line"/>
      <point x="638" y="0" type="line"/>
    </contour>
    <contour>
      <point x="480.0" y="502.0" type="move" name="aboveLC"/>
    </contour>
    <contour>
      <point x="372.0" y="-22.0" type="move" name="belowLC"/>
    </contour>
  </outline>
</glyph>
<glyph name="germandbls" format="1">
  <advance width="512"/>
  <outline>
    <contour>
      <point x="44" y="0" type="line"/>
      <point x="72" y="0" type="line"/>
      <point x="178" y="530" type="line" smooth="yes"/>
      <point x="198" y="628"/>
      <point x="256" y="708"/>
      <point x="334" y="708" type="curve" smooth="yes"/>
      <point x="394" y="708"/>
      <point x="418" y="668"/>
      <point x="418" y="616" type="curve" smooth="yes"/>
      <point x="418" y="496"/>
      <point x="270" y="472"/>
      <point x="270" y="356" type="curve" smooth="yes"/>
      <point x="270" y="254"/>
      <point x="432" y="242"/>
      <point x="432" y="124" type="curve" smooth="yes"/>
      <point x="432" y="60"/>
      <point x="376" y="14"/>
      <point x="312" y="14" type="curve" smooth="yes"/>
      <point x="266" y="14"/>
      <point x="230" y="32"/>
      <point x="194" y="62" type="curve"/>
      <point x="176" y="42" type="line"/>
      <point x="214" y="8"/>
      <point x="264" y="-12"/>
      <point x="310" y="-12" type="curve" smooth="yes"/>
      <point x="398" y="-12"/>
      <point x="460" y="52"/>
      <point x="460" y="130" type="curve" smooth="yes"/>
      <point x="460" y="258"/>
      <point x="298" y="266"/>
      <point x="298" y="362" type="curve" smooth="yes"/>
      <point x="298" y="456"/>
      <point x="446" y="482"/>
      <point x="446" y="616" type="curve" smooth="yes"/>
      <point x="446" y="692"/>
      <point x="404" y="734"/>
      <point x="336" y="734" type="curve" smooth="yes"/>
      <point x="240" y="734"/>
      <point x="174" y="644"/>
      <point x="152" y="540" type="curve" smooth="yes"/>
    </contour>
  </outline>
</glyph>
<glyph name="ghe" format="1">
  <advance width="358"/>
  <outline>
    <contour>
      <point x="24" y="94" type="curve" smooth="yes"/>
      <point x="24" y="26"/>
      <point x="72" y="-12"/>
      <point x="148" y="-12" type="curve" smooth="yes"/>
      <point x="214" y="-12"/>
      <point x="272" y="18"/>
      <point x="314" y="48" type="curve"/>
      <point x="298" y="70" type="line"/>
      <point x="260" y="42"/>
      <point x="204" y="14"/>
      <point x="150" y="14" type="curve" smooth="yes"/>
      <point x="84" y="14"/>
      <point x="50" y="48"/>
      <point x="50" y="96" type="curve" smooth="yes"/>
      <point x="50" y="238"/>
      <point x="344" y="248"/>
      <point x="344" y="392" type="curve" smooth="yes"/>
      <point x="344" y="450"/>
      <point x="300" y="490"/>
      <point x="232" y="490" type="curve" smooth="yes"/>
      <point x="168" y="490"/>
      <point x="128" y="464"/>
      <point x="84" y="432" type="curve"/>
      <point x="100" y="410" type="line"/>
      <point x="142" y="442"/>
      <point x="176" y="464"/>
      <point x="230" y="464" type="curve" smooth="yes"/>
      <point x="286" y="464"/>
      <point x="318" y="432"/>
      <point x="318" y="390" type="curve" smooth="yes"/>
      <point x="318" y="272"/>
      <point x="24" y="262"/>
    </contour>
    <contour>
      <point x="250.0" y="502.0" type="move" name="aboveLC"/>
    </contour>
  </outline>
</glyph>
<glyph name="gravecmb.cap" format="1">
  <advance width="0"/>
  <outline>
    <contour>
      <point x="130" y="710" type="line"/>
      <point x="156" y="710" type="line"/>
      <point x="78" y="812" type="line"/>
      <point x="44" y="812" type="line"/>
    </contour>
    <contour>
      <point x="136" y="682" type="move" name="_aboveUC"/>
    </contour>
  </outline>
</glyph>
<glyph name="gravecmb" format="1">
  <advance width="0"/>
  <outline>
    <contour>
      <point x="136" y="570" type="line"/>
      <point x="160" y="570" type="line"/>
      <point x="100" y="704" type="line"/>
      <point x="66" y="704" type="line"/>
    </contour>
    <contour>
      <point x="104" y="502" type="move" name="_aboveLC"/>
    </contour>
  </outline>
</glyph>
<glyph name="h.sups" format="1">
  <advance width="340"/>
  <outline>
    <contour>
      <point x="66" y="270" type="line"/>
      <point x="92" y="270" type="line"/>
      <point x="138" y="500" type="line"/>
      <point x="186" y="548"/>
      <point x="224" y="570"/>
      <point x="260" y="570" type="curve" smooth="yes"/>
      <point x="293" y="570"/>
      <point x="310" y="550"/>
      <point x="310" y="510" type="curve" smooth="yes"/>
      <point x="310" y="498"/>
      <point x="308" y="488"/>
      <point x="304" y="470" type="curve" smooth="yes"/>
      <point x="264" y="270" type="line"/>
      <point x="290" y="270" type="line"/>
      <point x="330" y="474" type="line" smooth="yes"/>
      <point x="333" y="487"/>
      <point x="336" y="501"/>
      <point x="336" y="516" type="curve" smooth="yes"/>
      <point x="336" y="564"/>
      <point x="318" y="594"/>
      <point x="262" y="594" type="curve" smooth="yes"/>
      <point x="222" y="594"/>
      <point x="186" y="570"/>
      <point x="148" y="538" type="curve"/>
      <point x="144" y="538" type="line"/>
      <point x="160" y="612" type="line"/>
      <point x="186" y="744" type="line"/>
      <point x="160" y="744" type="line"/>
    </contour>
  </outline>
</glyph>
<glyph name="ha.001" format="1">
  <advance width="380"/>
  <outline>
    <contour>
      <point x="160" y="146" type="curve" smooth="yes"/>
      <point x="160" y="38"/>
      <point x="220" y="-12"/>
      <point x="316" y="-12" type="curve"/>
      <point x="318" y="14" type="line"/>
      <point x="231" y="14"/>
      <point x="188" y="56"/>
      <point x="188" y="152" type="curve" smooth="yes"/>
      <point x="188" y="284"/>
      <point x="342" y="414"/>
      <point x="432" y="466" type="curve"/>
      <point x="418" y="490" type="line"/>
      <point x="331" y="438"/>
      <point x="160" y="306"/>
    </contour>
    <contour>
      <point x="222" y="332" type="curve" smooth="yes"/>
      <point x="222" y="440"/>
      <point x="162" y="490"/>
      <point x="66" y="490" type="curve"/>
      <point x="64" y="464" type="line"/>
      <point x="151" y="464"/>
      <point x="194" y="422"/>
      <point x="194" y="326" type="curve" smooth="yes"/>
      <point x="194" y="194"/>
      <point x="40" y="64"/>
      <point x="-50" y="12" type="curve"/>
      <point x="-36" y="-12" type="line"/>
      <point x="51" y="40"/>
      <point x="222" y="172"/>
    </contour>
    <contour>
      <point x="252.0" y="504.0" type="move" name="aboveLC"/>
    </contour>
    <contour>
      <point x="152.0" y="-22.0" type="move" name="belowLC"/>
    </contour>
  </outline>
</glyph>
<glyph name="ha" format="1">
  <advance width="380"/>
  <outline>
    <component base="x"/>
    <contour>
      <point x="252.0" y="504.0" type="move" name="aboveLC"/>
    </contour>
    <contour>
      <point x="152.0" y="-22.0" type="move" name="belowLC"/>
    </contour>
  </outline>
</glyph>
<glyph name="hungarumlautcmb.cap" format="1">
  <advance width="0"/>
  <outline>
    <contour>
      <point x="66" y="710" type="line"/>
      <point x="164" y="814" type="line"/>
      <point x="130" y="814" type="line"/>
      <point x="40" y="710" type="line"/>
    </contour>
    <contour>
      <point x="198" y="710" type="line"/>
      <point x="296" y="814" type="line"/>
      <point x="262" y="814" type="line"/>
      <point x="172" y="710" type="line"/>
    </contour>
    <contour>
      <point x="136" y="682" type="move" name="_aboveUC"/>
    </contour>
  </outline>
</glyph>
<glyph name="hungarumlautcmb" format="1">
  <advance width="0"/>
  <outline>
    <contour>
      <point x="32" y="570" type="line"/>
      <point x="58" y="570" type="line"/>
      <point x="174" y="706" type="line"/>
      <point x="136" y="706" type="line"/>
    </contour>
    <contour>
      <point x="156" y="570" type="line"/>
      <point x="182" y="570" type="line"/>
      <point x="298" y="706" type="line"/>
      <point x="260" y="706" type="line"/>
    </contour>
    <contour>
      <point x="104" y="502" type="move" name="_aboveLC"/>
    </contour>
  </outline>
</glyph>
<glyph name="i.sups" format="1">
  <advance width="150"/>
  <outline>
    <contour>
      <point x="158" y="802" type="curve" smooth="yes"/>
      <point x="174" y="802"/>
      <point x="186" y="816"/>
      <point x="186" y="832" type="curve" smooth="yes"/>
      <point x="186" y="846"/>
      <point x="176" y="856"/>
      <point x="164" y="856" type="curve" smooth="yes"/>
      <point x="148" y="856"/>
      <point x="136" y="842"/>
      <point x="136" y="826" type="curve" smooth="yes"/>
      <point x="136" y="812"/>
      <point x="146" y="802"/>
    </contour>
    <contour>
      <point x="66" y="410" type="line"/>
      <point x="92" y="410" type="line"/>
      <point x="154" y="726" type="line"/>
      <point x="128" y="726" type="line"/>
    </contour>
  </outline>
</glyph>
<glyph name="ie" format="1">
  <advance width="468"/>
  <outline>
    <component base="e"/>
    <contour>
      <point x="294.0" y="502.0" type="move" name="aboveLC"/>
    </contour>
    <contour>
      <point x="212.0" y="-22.0" type="move" name="belowLC"/>
    </contour>
    <contour>
      <point x="282.0" y="0.0" type="move" name="ogonekLC"/>
    </contour>
  </outline>
</glyph>
<glyph name="iogonek" format="1">
  <advance width="214"/>
  <outline>
    <contour>
      <point x="44" y="0" type="line"/>
      <point x="46" y="0" type="line"/>
      <point x="4" y="-30"/>
      <point x="-44" y="-88"/>
      <point x="-44" y="-140" type="curve" smooth="yes"/>
      <point x="-44" y="-182"/>
      <point x="-16" y="-202"/>
      <point x="22" y="-202" type="curve" smooth="yes"/>
      <point x="38" y="-202"/>
      <point x="58" y="-196"/>
      <point x="76" y="-186" type="curve"/>
      <point x="66" y="-164" type="line"/>
      <point x="52" y="-172"/>
      <point x="40" y="-176"/>
      <point x="24" y="-176" type="curve" smooth="yes"/>
      <point x="2" y="-176"/>
      <point x="-14" y="-160"/>
      <point x="-14" y="-134" type="curve" smooth="yes"/>
      <point x="-14" y="-88"/>
      <point x="22" y="-44"/>
      <point x="72" y="0" type="curve"/>
      <point x="168" y="478" type="line"/>
      <point x="140" y="478" type="line"/>
    </contour>
    <contour>
      <point x="180" y="600" type="curve" smooth="yes"/>
      <point x="198" y="600"/>
      <point x="216" y="616"/>
      <point x="216" y="638" type="curve" smooth="yes"/>
      <point x="216" y="656"/>
      <point x="204" y="668"/>
      <point x="188" y="668" type="curve" smooth="yes"/>
      <point x="170" y="668"/>
      <point x="152" y="652"/>
      <point x="152" y="628" type="curve" smooth="yes"/>
      <point x="152" y="612"/>
      <point x="164" y="600"/>
    </contour>
  </outline>
</glyph>
<glyph name="izhitsa" format="1">
  <advance width="413"/>
  <outline>
    <contour>
      <point x="158" y="26" type="line"/>
      <point x="150" y="70"/>
      <point x="144" y="120"/>
      <point x="136" y="166" type="curve" smooth="yes"/>
      <point x="86" y="478" type="line"/>
      <point x="58" y="478" type="line"/>
      <point x="136" y="0" type="line"/>
      <point x="174" y="0" type="line"/>
      <point x="371" y="375" type="line" smooth="yes"/>
      <point x="401" y="434"/>
      <point x="420" y="458"/>
      <point x="447" y="458" type="curve" smooth="yes"/>
      <point x="456" y="458"/>
      <point x="462" y="456"/>
      <point x="466" y="452" type="curve"/>
      <point x="482" y="482" type="line"/>
      <point x="472" y="488"/>
      <point x="463" y="490"/>
      <point x="455" y="490" type="curve" smooth="yes"/>
      <point x="410" y="490"/>
      <point x="384" y="456"/>
      <point x="344" y="379" type="curve" smooth="yes"/>
      <point x="233" y="166" type="line" smooth="yes"/>
      <point x="210" y="120"/>
      <point x="184" y="68"/>
      <point x="162" y="26" type="curve"/>
    </contour>
  </outline>
</glyph>
<glyph name="je" format="1">
  <advance width="214"/>
  <outline>
    <component base="j"/>
    <contour>
      <point x="198.0" y="678.0" type="move" name="aboveLC"/>
    </contour>
    <contour>
      <point x="-44.0" y="-230.0" type="move" name="belowLC"/>
    </contour>
  </outline>
</glyph>
<glyph name="k.sups" format="1">
  <advance width="300"/>
  <outline>
    <contour>
      <point x="66" y="270" type="line"/>
      <point x="92" y="270" type="line"/>
      <point x="108" y="356" type="line"/>
      <point x="198" y="444" type="line"/>
      <point x="270" y="270" type="line"/>
      <point x="296" y="270" type="line"/>
      <point x="218" y="460" type="line"/>
      <point x="340" y="586" type="line"/>
      <point x="310" y="586" type="line"/>
      <point x="120" y="400" type="line"/>
      <point x="116" y="400" type="line"/>
      <point x="186" y="744" type="line"/>
      <point x="160" y="744" type="line"/>
    </contour>
  </outline>
</glyph>
<glyph name="koppa" format="1">
  <advance width="500"/>
  <outline>
    <contour>
      <point x="204" y="-12" type="curve" smooth="yes"/>
      <point x="334" y="-12"/>
      <point x="454" y="124"/>
      <point x="454" y="302" type="curve" smooth="yes"/>
      <point x="454" y="422"/>
      <point x="392" y="490"/>
      <point x="296" y="490" type="curve" smooth="yes"/>
      <point x="166" y="490"/>
      <point x="46" y="354"/>
      <point x="46" y="176" type="curve" smooth="yes"/>
      <point x="46" y="56"/>
      <point x="108" y="-12"/>
    </contour>
    <contour>
      <point x="294" y="464" type="curve" smooth="yes"/>
      <point x="378" y="464"/>
      <point x="426" y="406"/>
      <point x="426" y="296" type="curve" smooth="yes"/>
      <point x="426" y="144"/>
      <point x="314" y="14"/>
      <point x="206" y="14" type="curve" smooth="yes"/>
      <point x="122" y="14"/>
      <point x="74" y="72"/>
      <point x="74" y="182" type="curve" smooth="yes"/>
      <point x="74" y="334"/>
      <point x="186" y="464"/>
    </contour>
    <contour>
      <point x="186" y="8" type="line"/>
      <point x="148" y="-180" type="line"/>
      <point x="176" y="-180" type="line"/>
      <point x="188" y="-110"/>
      <point x="196" y="-62"/>
      <point x="208" y="-2" type="curve"/>
    </contour>
  </outline>
</glyph>
<glyph name="l.supa" format="1">
  <advance width="151"/>
  <outline>
    <contour>
      <point x="66" y="270" type="line"/>
      <point x="92" y="270" type="line"/>
      <point x="186" y="744" type="line"/>
      <point x="160" y="744" type="line"/>
    </contour>
  </outline>
</glyph>
<glyph name="l.sups" format="1">
  <advance width="152"/>
  <outline>
    <contour>
      <point x="76" y="320" type="line" smooth="yes"/>
      <point x="74" y="312"/>
      <point x="72" y="302"/>
      <point x="72" y="294" type="curve" smooth="yes"/>
      <point x="72" y="274"/>
      <point x="82" y="262"/>
      <point x="100" y="262" type="curve" smooth="yes"/>
      <point x="110" y="262"/>
      <point x="119" y="264"/>
      <point x="127" y="267" type="curve"/>
      <point x="124" y="291" type="line"/>
      <point x="118" y="288"/>
      <point x="113" y="288"/>
      <point x="110" y="288" type="curve" smooth="yes"/>
      <point x="103" y="288"/>
      <point x="98" y="292"/>
      <point x="98" y="298" type="curve" smooth="yes"/>
      <point x="98" y="302"/>
      <point x="98" y="304"/>
      <point x="100" y="313" type="curve" smooth="yes"/>
      <point x="186" y="744" type="line"/>
      <point x="160" y="744" type="line"/>
    </contour>
  </outline>
</glyph>
<glyph name="lbelt" format="1">
  <advance width="308"/>
  <outline>
    <contour>
      <point x="262" y="478" type="line"/>
      <point x="234" y="478" type="line"/>
      <point x="170" y="156" type="line"/>
      <point x="126" y="68"/>
      <point x="62" y="16"/>
      <point x="10" y="16" type="curve" smooth="yes"/>
      <point x="-8" y="16"/>
      <point x="-18" y="20"/>
      <point x="-26" y="24" type="curve"/>
      <point x="-38" y="-4" type="line"/>
      <point x="-22" y="-10"/>
      <point x="-8" y="-12"/>
      <point x="4" y="-12" type="curve" smooth="yes"/>
      <point x="66" y="-12"/>
      <point x="114" y="34"/>
      <point x="154" y="90" type="curve"/>
      <point x="158" y="90" type="line"/>
      <point x="142" y="0" type="line"/>
      <point x="166" y="0" type="line"/>
    </contour>
    <contour>
      <point x="154.0" y="502.0" type="move" name="aboveLC"/>
    </contour>
    <contour>
      <point x="-18.0" y="-22.0" type="move" name="belowLC"/>
    </contour>
  </outline>
</glyph>
<glyph name="liraturkish" format="1">
  <advance width="456"/>
  <outline>
    <contour>
      <point x="116" y="18" type="curve"/>
      <point x="173" y="308" type="line"/>
      <point x="368" y="388" type="line"/>
      <point x="374" y="416" type="line"/>
      <point x="179" y="336" type="line"/>
      <point x="196" y="424" type="line"/>
      <point x="392" y="504" type="line"/>
      <point x="398" y="532" type="line"/>
      <point x="202" y="452" type="line"/>
      <point x="240" y="640" type="line"/>
      <point x="212" y="640" type="line"/>
      <point x="172" y="440" type="line"/>
      <point x="60" y="394" type="line"/>
      <point x="54" y="366" type="line"/>
      <point x="166" y="412" type="line"/>
      <point x="148" y="324" type="line"/>
      <point x="36" y="278" type="line"/>
      <point x="30" y="250" type="line"/>
      <point x="142" y="296" type="line"/>
      <point x="80" y="-12" type="line"/>
      <point x="273" y="-8"/>
      <point x="426" y="83"/>
      <point x="420" y="274" type="curve"/>
      <point x="392" y="264" type="line"/>
      <point x="394" y="106"/>
      <point x="262" y="20"/>
    </contour>
  </outline>
</glyph>
<glyph name="lslash.alt" format="1">
  <advance width="216"/>
  <outline>
    <contour>
      <point x="54" y="336" type="line"/>
      <point x="130" y="382" type="line"/>
      <point x="143" y="388" type="line"/>
      <point x="242" y="448" type="line"/>
      <point x="232" y="470" type="line"/>
      <point x="150" y="420" type="line"/>
      <point x="136" y="414" type="line"/>
      <point x="44" y="358" type="line"/>
    </contour>
    <component base="l.alt"/>
  </outline>
</glyph>
<glyph name="m.sups" format="1">
  <advance width="522"/>
  <outline>
    <contour>
      <point x="66" y="270" type="line"/>
      <point x="92" y="270" type="line"/>
      <point x="138" y="500" type="line"/>
      <point x="180" y="544"/>
      <point x="222" y="570"/>
      <point x="252" y="570" type="curve" smooth="yes"/>
      <point x="286" y="570"/>
      <point x="304" y="550"/>
      <point x="304" y="510" type="curve" smooth="yes"/>
      <point x="304" y="498"/>
      <point x="302" y="488"/>
      <point x="298" y="470" type="curve" smooth="yes"/>
      <point x="258" y="270" type="line"/>
      <point x="284" y="270" type="line"/>
      <point x="330" y="500" type="line"/>
      <point x="370" y="544"/>
      <point x="412" y="570"/>
      <point x="442" y="570" type="curve" smooth="yes"/>
      <point x="476" y="570"/>
      <point x="494" y="550"/>
      <point x="494" y="510" type="curve" smooth="yes"/>
      <point x="494" y="500"/>
      <point x="492" y="488"/>
      <point x="488" y="470" type="curve" smooth="yes"/>
      <point x="448" y="270" type="line"/>
      <point x="474" y="270" type="line"/>
      <point x="514" y="474" type="line" smooth="yes"/>
      <point x="518" y="492"/>
      <point x="520" y="504"/>
      <point x="520" y="516" type="curve" smooth="yes"/>
      <point x="520" y="564"/>
      <point x="500" y="594"/>
      <point x="444" y="594" type="curve" smooth="yes"/>
      <point x="410" y="594"/>
      <point x="372" y="570"/>
      <point x="328" y="532" type="curve"/>
      <point x="324" y="564"/>
      <point x="310" y="594"/>
      <point x="254" y="594" type="curve" smooth="yes"/>
      <point x="220" y="594"/>
      <point x="182" y="570"/>
      <point x="148" y="538" type="curve"/>
      <point x="144" y="538" type="line"/>
      <point x="150" y="586" type="line"/>
      <point x="128" y="586" type="line"/>
    </contour>
  </outline>
</glyph>
<glyph name="macronacute.cap" format="1">
  <advance width="0"/>
  <outline>
    <contour>
      <point x="72" y="826" type="line"/>
      <point x="190" y="928" type="line"/>
      <point x="154" y="928" type="line"/>
      <point x="44" y="826" type="line"/>
    </contour>
    <contour>
      <point x="-46" y="736" type="line"/>
      <point x="164" y="736" type="line"/>
      <point x="170" y="762" type="line"/>
      <point x="-40" y="762" type="line"/>
    </contour>
  </outline>
</glyph>
<glyph name="macronacute" format="1">
  <advance width="0"/>
  <outline>
    <contour>
      <point x="94" y="706" type="line"/>
      <point x="190" y="800" type="line"/>
      <point x="152" y="800" type="line"/>
      <point x="66" y="706" type="line"/>
    </contour>
    <contour>
      <point x="-26" y="608" type="line"/>
      <point x="186" y="608" type="line"/>
      <point x="190" y="634" type="line"/>
      <point x="-22" y="634" type="line"/>
    </contour>
  </outline>
</glyph>
<glyph name="macronbelowcmb" format="1">
  <advance width="0"/>
  <outline>
    <contour>
      <point x="-136" y="-162" type="line"/>
      <point x="76" y="-162" type="line"/>
      <point x="80" y="-136" type="line"/>
      <point x="-132" y="-136" type="line"/>
    </contour>
    <contour>
      <point x="-6" y="-30" type="move" name="_belowLC"/>
    </contour>
  </outline>
</glyph>
<glyph name="macroncmb.cap" format="1">
  <advance width="0"/>
  <outline>
    <contour>
      <point x="24" y="736" type="line"/>
      <point x="234" y="736" type="line"/>
      <point x="240" y="762" type="line"/>
      <point x="30" y="762" type="line"/>
    </contour>
    <contour>
      <point x="136" y="682" type="move" name="_aboveUC"/>
    </contour>
  </outline>
</glyph>
<glyph name="macroncmb" format="1">
  <advance width="0"/>
  <outline>
    <contour>
      <point x="14" y="608" type="line"/>
      <point x="226" y="608" type="line"/>
      <point x="230" y="634" type="line"/>
      <point x="18" y="634" type="line"/>
    </contour>
    <contour>
      <point x="104" y="502" type="move" name="_aboveLC"/>
    </contour>
  </outline>
</glyph>
<glyph name="multiply" format="1">
  <advance width="456"/>
  <outline>
    <contour>
      <point x="242" y="314" type="line"/>
      <point x="400" y="148" type="line"/>
      <point x="418" y="166" type="line"/>
      <point x="260" y="332" type="line"/>
      <point x="418" y="496" type="line"/>
      <point x="400" y="514" type="line"/>
      <point x="242" y="350" type="line"/>
      <point x="84" y="514" type="line"/>
      <point x="66" y="496" type="line"/>
      <point x="224" y="332" type="line"/>
      <point x="66" y="166" type="line"/>
      <point x="84" y="148" type="line"/>
    </contour>
  </outline>
</glyph>
<glyph name="n.sups" format="1">
  <advance width="342"/>
  <outline>
    <contour>
      <point x="66" y="270" type="line"/>
      <point x="92" y="270" type="line"/>
      <point x="138" y="500" type="line"/>
      <point x="186" y="548"/>
      <point x="224" y="570"/>
      <point x="260" y="570" type="curve" smooth="yes"/>
      <point x="293" y="570"/>
      <point x="310" y="550"/>
      <point x="310" y="510" type="curve" smooth="yes"/>
      <point x="310" y="498"/>
      <point x="308" y="488"/>
      <point x="304" y="470" type="curve" smooth="yes"/>
      <point x="264" y="270" type="line"/>
      <point x="290" y="270" type="line"/>
      <point x="330" y="474" type="line" smooth="yes"/>
      <point x="334" y="492"/>
      <point x="336" y="500"/>
      <point x="336" y="516" type="curve" smooth="yes"/>
      <point x="336" y="564"/>
      <point x="318" y="594"/>
      <point x="262" y="594" type="curve" smooth="yes"/>
      <point x="222" y="594"/>
      <point x="186" y="570"/>
      <point x="148" y="538" type="curve"/>
      <point x="144" y="538" type="line"/>
      <point x="150" y="586" type="line"/>
      <point x="128" y="586" type="line"/>
    </contour>
  </outline>
</glyph>
<glyph name="numero" format="1">
  <advance width="797"/>
  <outline>
    <contour>
      <point x="539" y="405" type="curve" smooth="yes"/>
      <point x="539" y="328"/>
      <point x="585" y="282"/>
      <point x="651" y="282" type="curve" smooth="yes"/>
      <point x="740" y="282"/>
      <point x="824" y="356"/>
      <point x="824" y="472" type="curve" smooth="yes"/>
      <point x="824" y="550"/>
      <point x="778" y="594"/>
      <point x="713" y="594" type="curve" smooth="yes"/>
      <point x="623" y="594"/>
      <point x="539" y="522"/>
    </contour>
    <contour>
      <point x="656" y="307" type="curve" smooth="yes"/>
      <point x="600" y="307"/>
      <point x="568" y="349"/>
      <point x="568" y="409" type="curve" smooth="yes"/>
      <point x="568" y="500"/>
      <point x="630" y="569"/>
      <point x="708" y="569" type="curve" smooth="yes"/>
      <point x="763" y="569"/>
      <point x="796" y="529"/>
      <point x="796" y="468" type="curve" smooth="yes"/>
      <point x="796" y="378"/>
      <point x="733" y="307"/>
    </contour>
    <contour>
      <point x="511" y="168" type="line"/>
      <point x="745" y="168" type="line"/>
      <point x="750" y="195" type="line"/>
      <point x="516" y="195" type="line"/>
    </contour>
    <contour>
      <point x="366" y="0" type="line"/>
      <point x="483" y="586" type="line" smooth="yes"/>
      <point x="489" y="616"/>
      <point x="502" y="626"/>
      <point x="520" y="626" type="curve"/>
      <point x="521" y="650" type="line"/>
      <point x="515" y="652"/>
      <point x="513" y="652"/>
      <point x="510" y="652" type="curve" smooth="yes"/>
      <point x="482" y="652"/>
      <point x="464" y="631"/>
      <point x="454" y="582" type="curve" smooth="yes"/>
      <point x="412" y="370" type="line" smooth="yes"/>
      <point x="388" y="251"/>
      <point x="372" y="177"/>
      <point x="351" y="45" type="curve"/>
      <point x="347" y="45" type="line"/>
      <point x="306" y="226" type="line"/>
      <point x="272" y="364"/>
      <point x="238" y="502"/>
      <point x="202" y="640" type="curve"/>
      <point x="169" y="640" type="line"/>
      <point x="52" y="54" type="line" smooth="yes"/>
      <point x="46" y="24"/>
      <point x="32" y="14"/>
      <point x="15" y="14" type="curve"/>
      <point x="14" y="-10" type="line"/>
      <point x="19" y="-12"/>
      <point x="21" y="-12"/>
      <point x="25" y="-12" type="curve" smooth="yes"/>
      <point x="53" y="-12"/>
      <point x="70" y="9"/>
      <point x="80" y="59" type="curve" smooth="yes"/>
      <point x="122" y="270" type="line" smooth="yes"/>
      <point x="146" y="390"/>
      <point x="163" y="464"/>
      <point x="184" y="595" type="curve"/>
      <point x="187" y="595" type="line"/>
      <point x="229" y="416" type="line" smooth="yes"/>
      <point x="262" y="276"/>
      <point x="297" y="139"/>
      <point x="333" y="0" type="curve"/>
    </contour>
  </outline>
</glyph>
<glyph name="o.sups" format="1">
  <advance width="340"/>
  <outline>
    <contour>
      <point x="172" y="262" type="curve" smooth="yes"/>
      <point x="256" y="262"/>
      <point x="344" y="344"/>
      <point x="344" y="470" type="curve" smooth="yes"/>
      <point x="344" y="548"/>
      <point x="304" y="594"/>
      <point x="236" y="594" type="curve" smooth="yes"/>
      <point x="152" y="594"/>
      <point x="64" y="512"/>
      <point x="64" y="386" type="curve" smooth="yes"/>
      <point x="64" y="308"/>
      <point x="104" y="262"/>
    </contour>
    <contour>
      <point x="174" y="286" type="curve" smooth="yes"/>
      <point x="120" y="286"/>
      <point x="90" y="324"/>
      <point x="90" y="390" type="curve" smooth="yes"/>
      <point x="90" y="486"/>
      <point x="160" y="570"/>
      <point x="234" y="570" type="curve" smooth="yes"/>
      <point x="288" y="570"/>
      <point x="318" y="532"/>
      <point x="318" y="466" type="curve" smooth="yes"/>
      <point x="318" y="370"/>
      <point x="248" y="286"/>
    </contour>
  </outline>
</glyph>
<glyph name="ocyr" format="1">
  <advance width="500"/>
  <outline>
    <component base="o" xOffset="4"/>
    <contour>
      <point x="318.0" y="502.0" type="move" name="aboveLC"/>
    </contour>
    <contour>
      <point x="188.0" y="-22.0" type="move" name="belowLC"/>
    </contour>
    <contour>
      <point x="390.0" y="478.0" type="move" name="hornLC"/>
    </contour>
    <contour>
      <point x="214.0" y="0.0" type="move" name="ogonekLC"/>
    </contour>
  </outline>
</glyph>
<glyph name="ohorn" format="1">
  <advance width="500"/>
  <outline>
    <contour>
      <point x="400" y="445" type="line"/>
      <point x="478" y="454"/>
      <point x="518" y="498"/>
      <point x="518" y="550" type="curve" smooth="yes"/>
      <point x="518" y="562"/>
      <point x="516" y="572"/>
      <point x="510" y="586" type="curve"/>
      <point x="484" y="574" type="line"/>
      <point x="488" y="560"/>
      <point x="488" y="554"/>
      <point x="488" y="544" type="curve" smooth="yes"/>
      <point x="488" y="496"/>
      <point x="438" y="469"/>
      <point x="378" y="468" type="curve"/>
    </contour>
    <component base="o"/>
    <contour>
      <point x="318" y="502" type="move" name="aboveLC"/>
    </contour>
    <contour>
      <point x="188" y="-22" type="move" name="belowLC"/>
    </contour>
  </outline>
</glyph>
<glyph name="p.sups" format="1">
  <advance width="350"/>
  <outline>
    <contour>
      <point x="98" y="452" type="line"/>
      <point x="102" y="452" type="line"/>
      <point x="120" y="416"/>
      <point x="150" y="402"/>
      <point x="182" y="402" type="curve" smooth="yes"/>
      <point x="272" y="402"/>
      <point x="358" y="498"/>
      <point x="358" y="618" type="curve" smooth="yes"/>
      <point x="358" y="694"/>
      <point x="320" y="734"/>
      <point x="264" y="734" type="curve" smooth="yes"/>
      <point x="218" y="734"/>
      <point x="184" y="714"/>
      <point x="150" y="686" type="curve"/>
      <point x="146" y="686" type="line"/>
      <point x="150" y="726" type="line"/>
      <point x="128" y="726" type="line"/>
      <point x="38" y="270" type="line"/>
      <point x="64" y="270" type="line"/>
      <point x="86" y="380" type="line"/>
    </contour>
    <contour>
      <point x="262" y="710" type="curve" smooth="yes"/>
      <point x="302" y="710"/>
      <point x="332" y="680"/>
      <point x="332" y="614" type="curve" smooth="yes"/>
      <point x="332" y="520"/>
      <point x="258" y="426"/>
      <point x="184" y="426" type="curve" smooth="yes"/>
      <point x="156" y="426"/>
      <point x="130" y="440"/>
      <point x="106" y="484" type="curve"/>
      <point x="140" y="652" type="line"/>
      <point x="178" y="686"/>
      <point x="222" y="710"/>
    </contour>
  </outline>
</glyph>
<glyph name="parenleft.dnom" format="1">
  <advance width="204"/>
  <outline>
    <contour>
      <point x="80" y="-72" type="curve"/>
      <point x="98" y="-60" type="line"/>
      <point x="74" y="-12"/>
      <point x="66" y="58"/>
      <point x="66" y="112" type="curve" smooth="yes"/>
      <point x="66" y="226"/>
      <point x="106" y="334"/>
      <point x="200" y="442" type="curve"/>
      <point x="184" y="456" type="line"/>
      <point x="84" y="344"/>
      <point x="40" y="242"/>
      <point x="40" y="114" type="curve" smooth="yes"/>
      <point x="40" y="46"/>
      <point x="54" y="-20"/>
    </contour>
  </outline>
</glyph>
<glyph name="period.dnom" format="1">
  <advance width="146"/>
  <outline>
    <contour>
      <point x="22" y="-8" type="curve" smooth="yes"/>
      <point x="42" y="-8"/>
      <point x="60" y="8"/>
      <point x="60" y="32" type="curve" smooth="yes"/>
      <point x="60" y="48"/>
      <point x="48" y="60"/>
      <point x="34" y="60" type="curve" smooth="yes"/>
      <point x="14" y="60"/>
      <point x="-4" y="42"/>
      <point x="-4" y="20" type="curve" smooth="yes"/>
      <point x="-4" y="2"/>
      <point x="6" y="-8"/>
    </contour>
  </outline>
</glyph>
<glyph name="period" format="1">
  <advance width="202"/>
  <outline>
    <contour>
      <point x="50" y="-12" type="curve" smooth="yes"/>
      <point x="72" y="-12"/>
      <point x="90" y="10"/>
      <point x="90" y="32" type="curve" smooth="yes"/>
      <point x="90" y="50"/>
      <point x="82" y="64"/>
      <point x="64" y="64" type="curve" smooth="yes"/>
      <point x="42" y="64"/>
      <point x="22" y="40"/>
      <point x="22" y="18" type="curve" smooth="yes"/>
      <point x="22" y="2"/>
      <point x="32" y="-12"/>
    </contour>
  </outline>
</glyph>
<glyph name="perthousand" format="1">
  <advance width="1098"/>
  <outline>
    <contour>
      <point x="160" y="-12" type="line"/>
      <point x="652" y="672" type="line"/>
      <point x="622" y="672" type="line"/>
      <point x="130" y="-12" type="line"/>
    </contour>
    <contour>
      <point x="178" y="258" type="curve" smooth="yes"/>
      <point x="294" y="258"/>
      <point x="352" y="414"/>
      <point x="352" y="526" type="curve" smooth="yes"/>
      <point x="352" y="606"/>
      <point x="318" y="672"/>
      <point x="242" y="672" type="curve" smooth="yes"/>
      <point x="126" y="672"/>
      <point x="68" y="516"/>
      <point x="68" y="404" type="curve" smooth="yes"/>
      <point x="68" y="324"/>
      <point x="102" y="258"/>
    </contour>
    <contour>
      <point x="240" y="648" type="curve" smooth="yes"/>
      <point x="301" y="648"/>
      <point x="324" y="591"/>
      <point x="324" y="520" type="curve" smooth="yes"/>
      <point x="324" y="426"/>
      <point x="276" y="282"/>
      <point x="180" y="282" type="curve" smooth="yes"/>
      <point x="119" y="282"/>
      <point x="96" y="339"/>
      <point x="96" y="410" type="curve" smooth="yes"/>
      <point x="96" y="504"/>
      <point x="144" y="648"/>
    </contour>
    <contour>
      <point x="544" y="-12" type="curve" smooth="yes"/>
      <point x="660" y="-12"/>
      <point x="718" y="144"/>
      <point x="718" y="256" type="curve" smooth="yes"/>
      <point x="718" y="336"/>
      <point x="684" y="402"/>
      <point x="608" y="402" type="curve" smooth="yes"/>
      <point x="492" y="402"/>
      <point x="434" y="246"/>
      <point x="434" y="134" type="curve" smooth="yes"/>
      <point x="434" y="54"/>
      <point x="468" y="-12"/>
    </contour>
    <contour>
      <point x="606" y="378" type="curve" smooth="yes"/>
      <point x="667" y="378"/>
      <point x="690" y="321"/>
      <point x="690" y="250" type="curve" smooth="yes"/>
      <point x="690" y="156"/>
      <point x="642" y="12"/>
      <point x="546" y="12" type="curve" smooth="yes"/>
      <point x="485" y="12"/>
      <point x="462" y="69"/>
      <point x="462" y="140" type="curve" smooth="yes"/>
      <point x="462" y="234"/>
      <point x="510" y="378"/>
    </contour>
    <contour>
      <point x="882" y="-12" type="curve" smooth="yes"/>
      <point x="998" y="-12"/>
      <point x="1056" y="144"/>
      <point x="1056" y="256" type="curve" smooth="yes"/>
      <point x="1056" y="336"/>
      <point x="1022" y="402"/>
      <point x="946" y="402" type="curve" smooth="yes"/>
      <point x="830" y="402"/>
      <point x="772" y="246"/>
      <point x="772" y="134" type="curve" smooth="yes"/>
      <point x="772" y="54"/>
      <point x="806" y="-12"/>
    </contour>
    <contour>
      <point x="944" y="378" type="curve" smooth="yes"/>
      <point x="1005" y="378"/>
      <point x="1028" y="321"/>
      <point x="1028" y="250" type="curve" smooth="yes"/>
      <point x="1028" y="156"/>
      <point x="980" y="12"/>
      <point x="884" y="12" type="curve" smooth="yes"/>
      <point x="823" y="12"/>
      <point x="800" y="69"/>
      <point x="800" y="140" type="curve" smooth="yes"/>
      <point x="800" y="234"/>
      <point x="848" y="378"/>
    </contour>
  </outline>
</glyph>
<glyph name="phi.001" format="1">
  <advance width="602"/>
  <outline>
    <contour>
      <point x="326" y="315" type="curve" smooth="yes"/>
      <point x="346" y="426"/>
      <point x="390" y="464"/>
      <point x="436" y="464" type="curve" smooth="yes"/>
      <point x="494" y="464"/>
      <point x="528" y="388"/>
      <point x="528" y="310" type="curve" smooth="yes"/>
      <point x="528" y="134"/>
      <point x="414" y="16"/>
      <point x="262" y="14" type="curve"/>
      <point x="256" y="-10" type="line"/>
      <point x="430" y="-8"/>
      <point x="556" y="116"/>
      <point x="556" y="322" type="curve" smooth="yes"/>
      <point x="556" y="404"/>
      <point x="510" y="490"/>
      <point x="438" y="490" type="curve" smooth="yes"/>
      <point x="370" y="490"/>
      <point x="323" y="438"/>
      <point x="303" y="329" type="curve" smooth="yes"/>
      <point x="200" y="-180" type="line"/>
      <point x="230" y="-180" type="line"/>
      <point x="260" y="-18"/>
      <point x="293" y="149"/>
    </contour>
    <contour>
      <point x="256" y="14" type="line"/>
      <point x="176" y="14"/>
      <point x="74" y="76"/>
      <point x="74" y="206" type="curve" smooth="yes"/>
      <point x="74" y="311"/>
      <point x="128" y="400"/>
      <point x="226" y="472" type="curve"/>
      <point x="208" y="490" type="line"/>
      <point x="114" y="422"/>
      <point x="46" y="322"/>
      <point x="46" y="200" type="curve" smooth="yes"/>
      <point x="46" y="62"/>
      <point x="162" y="-10"/>
      <point x="250" y="-10" type="curve"/>
    </contour>
  </outline>
</glyph>
<glyph name="pi" format="1">
  <advance width="506"/>
  <outline>
    <contour>
      <point x="62" y="0" type="line"/>
      <point x="90" y="0" type="line"/>
      <point x="180" y="452" type="line"/>
      <point x="406" y="452" type="line"/>
      <point x="332" y="78" type="line" smooth="yes"/>
      <point x="322" y="32"/>
      <point x="328" y="-12"/>
      <point x="372" y="-12" type="curve" smooth="yes"/>
      <point x="388" y="-12"/>
      <point x="396" y="-10"/>
      <point x="414" y="-2" type="curve"/>
      <point x="408" y="20" type="line"/>
      <point x="398" y="16"/>
      <point x="392" y="14"/>
      <point x="382" y="14" type="curve" smooth="yes"/>
      <point x="356" y="14"/>
      <point x="352" y="38"/>
      <point x="358" y="68" type="curve" smooth="yes"/>
      <point x="434" y="452" type="line"/>
      <point x="512" y="452" type="line"/>
      <point x="518" y="478" type="line"/>
      <point x="136" y="478" type="line"/>
      <point x="72" y="474" type="line"/>
      <point x="70" y="452" type="line"/>
      <point x="152" y="452" type="line"/>
    </contour>
  </outline>
</glyph>
<glyph name="plus" format="1">
  <advance width="456"/>
  <outline>
    <contour>
      <point x="228" y="110" type="line"/>
      <point x="256" y="110" type="line"/>
      <point x="256" y="318" type="line"/>
      <point x="436" y="318" type="line"/>
      <point x="436" y="344" type="line"/>
      <point x="256" y="344" type="line"/>
      <point x="256" y="546" type="line"/>
      <point x="228" y="546" type="line"/>
      <point x="228" y="344" type="line"/>
      <point x="48" y="344" type="line"/>
      <point x="48" y="318" type="line"/>
      <point x="228" y="318" type="line"/>
    </contour>
  </outline>
</glyph>
<glyph name="product" format="1">
  <advance width="618"/>
  <outline>
    <contour>
      <point x="20" y="-120" type="line"/>
      <point x="48" y="-120" type="line"/>
      <point x="196" y="614" type="line"/>
      <point x="570" y="614" type="line"/>
      <point x="422" y="-120" type="line"/>
      <point x="450" y="-120" type="line"/>
      <point x="602" y="640" type="line"/>
      <point x="172" y="640" type="line"/>
    </contour>
  </outline>
</glyph>
<glyph name="q.sups" format="1">
  <advance width="346"/>
  <outline>
    <contour>
      <point x="356" y="726" type="line"/>
      <point x="336" y="726" type="line"/>
      <point x="324" y="684" type="line"/>
      <point x="320" y="684" type="line"/>
      <point x="302" y="720"/>
      <point x="272" y="734"/>
      <point x="240" y="734" type="curve" smooth="yes"/>
      <point x="150" y="734"/>
      <point x="64" y="638"/>
      <point x="64" y="518" type="curve" smooth="yes"/>
      <point x="64" y="442"/>
      <point x="102" y="402"/>
      <point x="158" y="402" type="curve" smooth="yes"/>
      <point x="204" y="402"/>
      <point x="244" y="426"/>
      <point x="278" y="462" type="curve"/>
      <point x="282" y="462" type="line"/>
      <point x="262" y="380" type="line"/>
      <point x="240" y="270" type="line"/>
      <point x="266" y="270" type="line"/>
    </contour>
    <contour>
      <point x="160" y="426" type="curve" smooth="yes"/>
      <point x="120" y="426"/>
      <point x="90" y="456"/>
      <point x="90" y="522" type="curve" smooth="yes"/>
      <point x="90" y="616"/>
      <point x="164" y="710"/>
      <point x="238" y="710" type="curve" smooth="yes"/>
      <point x="266" y="710"/>
      <point x="292" y="696"/>
      <point x="316" y="652" type="curve"/>
      <point x="286" y="500" type="line"/>
      <point x="248" y="458"/>
      <point x="200" y="426"/>
    </contour>
  </outline>
</glyph>
<glyph name="quoteleft" format="1">
  <advance width="202"/>
  <outline>
    <contour>
      <point x="158" y="512" type="line"/>
      <point x="152" y="562" type="line"/>
      <point x="152" y="606"/>
      <point x="180" y="650"/>
      <point x="232" y="682" type="curve"/>
      <point x="220" y="702" type="line"/>
      <point x="160" y="668"/>
      <point x="120" y="612"/>
      <point x="120" y="542" type="curve" smooth="yes"/>
      <point x="120" y="514"/>
      <point x="136" y="498"/>
      <point x="156" y="498" type="curve" smooth="yes"/>
      <point x="174" y="498"/>
      <point x="188" y="514"/>
      <point x="188" y="534" type="curve" smooth="yes"/>
      <point x="188" y="554"/>
      <point x="174" y="564"/>
      <point x="156" y="564" type="curve" smooth="yes"/>
      <point x="150" y="564"/>
      <point x="140" y="562"/>
      <point x="132" y="552" type="curve"/>
    </contour>
  </outline>
</glyph>
<glyph name="radical" format="1">
  <advance width="514"/>
  <outline>
    <contour>
      <point x="220" y="-14" type="line"/>
      <point x="174" y="378" type="line"/>
      <point x="68" y="328" type="line"/>
      <point x="72" y="302" type="line"/>
      <point x="148" y="334" type="line"/>
      <point x="204" y="-108" type="line"/>
      <point x="232" y="-108" type="line"/>
      <point x="628" y="820" type="line"/>
      <point x="596" y="820" type="line"/>
      <point x="244" y="-14" type="line"/>
      <point x="226" y="-60" type="line"/>
      <point x="222" y="-60" type="line"/>
    </contour>
  </outline>
</glyph>
<glyph name="ringcmb.cap" format="1">
  <advance width="0"/>
  <outline>
    <contour>
      <point x="128" y="698" type="curve" smooth="yes"/>
      <point x="174" y="698"/>
      <point x="214" y="738"/>
      <point x="214" y="788" type="curve" smooth="yes"/>
      <point x="214" y="838"/>
      <point x="184" y="862"/>
      <point x="144" y="862" type="curve" smooth="yes"/>
      <point x="98" y="862"/>
      <point x="58" y="822"/>
      <point x="58" y="772" type="curve" smooth="yes"/>
      <point x="58" y="722"/>
      <point x="88" y="698"/>
    </contour>
    <contour>
      <point x="130" y="720" type="curve" smooth="yes"/>
      <point x="100" y="720"/>
      <point x="82" y="740"/>
      <point x="82" y="774" type="curve" smooth="yes"/>
      <point x="82" y="812"/>
      <point x="110" y="840"/>
      <point x="142" y="840" type="curve" smooth="yes"/>
      <point x="172" y="840"/>
      <point x="190" y="820"/>
      <point x="190" y="786" type="curve" smooth="yes"/>
      <point x="190" y="748"/>
      <point x="162" y="720"/>
    </contour>
    <contour>
      <point x="136" y="682" type="move" name="_aboveUC"/>
    </contour>
  </outline>
</glyph>
<glyph name="ringcmb" format="1">
  <advance width="0"/>
  <outline>
    <contour>
      <point x="114" y="534" type="curve" smooth="yes"/>
      <point x="160" y="534"/>
      <point x="200" y="578"/>
      <point x="200" y="628" type="curve" smooth="yes"/>
      <point x="200" y="678"/>
      <point x="170" y="704"/>
      <point x="130" y="704" type="curve" smooth="yes"/>
      <point x="84" y="704"/>
      <point x="44" y="660"/>
      <point x="44" y="610" type="curve" smooth="yes"/>
      <point x="44" y="560"/>
      <point x="74" y="534"/>
    </contour>
    <contour>
      <point x="128" y="682" type="curve" smooth="yes"/>
      <point x="158" y="682"/>
      <point x="176" y="660"/>
      <point x="176" y="626" type="curve" smooth="yes"/>
      <point x="176" y="588"/>
      <point x="148" y="556"/>
      <point x="116" y="556" type="curve" smooth="yes"/>
      <point x="86" y="556"/>
      <point x="68" y="578"/>
      <point x="68" y="612" type="curve" smooth="yes"/>
      <point x="68" y="650"/>
      <point x="96" y="682"/>
    </contour>
    <contour>
      <point x="104" y="502" type="move" name="_aboveLC"/>
    </contour>
  </outline>
</glyph>
<glyph name="ringhalfrightmod" format="1">
  <advance width="150"/>
  <outline>
    <contour>
      <point x="102" y="538" type="line"/>
      <point x="170" y="538"/>
      <point x="212" y="580"/>
      <point x="212" y="636" type="curve" smooth="yes"/>
      <point x="212" y="674"/>
      <point x="186" y="706"/>
      <point x="136" y="704" type="curve"/>
      <point x="130" y="684" type="line"/>
      <point x="172" y="684"/>
      <point x="186" y="660"/>
      <point x="186" y="630" type="curve" smooth="yes"/>
      <point x="186" y="590"/>
      <point x="158" y="560"/>
      <point x="106" y="558" type="curve"/>
    </contour>
  </outline>
</glyph>
<glyph name="s" format="1">
  <advance width="384"/>
  <outline>
    <contour>
      <point x="0" y="76" type="line"/>
      <point x="26" y="34"/>
      <point x="88" y="-12"/>
      <point x="158" y="-12" type="curve" smooth="yes"/>
      <point x="250" y="-12"/>
      <point x="320" y="42"/>
      <point x="320" y="128" type="curve" smooth="yes"/>
      <point x="320" y="168"/>
      <point x="308" y="204"/>
      <point x="198" y="264" type="curve" smooth="yes"/>
      <point x="150" y="290"/>
      <point x="108" y="316"/>
      <point x="108" y="364" type="curve" smooth="yes"/>
      <point x="108" y="418"/>
      <point x="160" y="464"/>
      <point x="224" y="464" type="curve" smooth="yes"/>
      <point x="274" y="464"/>
      <point x="308" y="442"/>
      <point x="334" y="414" type="curve"/>
      <point x="354" y="434" type="line"/>
      <point x="322" y="468"/>
      <point x="278" y="490"/>
      <point x="226" y="490" type="curve" smooth="yes"/>
      <point x="148" y="490"/>
      <point x="80" y="438"/>
      <point x="80" y="358" type="curve" smooth="yes"/>
      <point x="80" y="310"/>
      <point x="110" y="278"/>
      <point x="200" y="230" type="curve" smooth="yes"/>
      <point x="277" y="189"/>
      <point x="292" y="162"/>
      <point x="292" y="122" type="curve" smooth="yes"/>
      <point x="292" y="64"/>
      <point x="232" y="14"/>
      <point x="162" y="14" type="curve" smooth="yes"/>
      <point x="98" y="14"/>
      <point x="48" y="50"/>
      <point x="22" y="92" type="curve"/>
    </contour>
    <contour>
      <point x="248" y="502" type="move" name="aboveLC"/>
    </contour>
    <contour>
      <point x="166" y="-22" type="move" name="belowLC"/>
    </contour>
    <contour>
      <point x="166" y="0" type="move" name="baseLC"/>
    </contour>
  </outline>
</glyph>
<glyph name="s.sups" format="1">
  <advance width="260"/>
  <outline>
    <contour>
      <point x="32" y="316" type="line"/>
      <point x="60" y="286"/>
      <point x="96" y="262"/>
      <point x="142" y="262" type="curve" smooth="yes"/>
      <point x="206" y="262"/>
      <point x="254" y="296"/>
      <point x="254" y="356" type="curve" smooth="yes"/>
      <point x="254" y="390"/>
      <point x="234" y="417"/>
      <point x="174" y="446" type="curve" smooth="yes"/>
      <point x="138" y="464"/>
      <point x="114" y="482"/>
      <point x="114" y="508" type="curve" smooth="yes"/>
      <point x="114" y="542"/>
      <point x="144" y="570"/>
      <point x="186" y="570" type="curve" smooth="yes"/>
      <point x="218" y="570"/>
      <point x="244" y="554"/>
      <point x="262" y="536" type="curve"/>
      <point x="280" y="556" type="line"/>
      <point x="256" y="578"/>
      <point x="226" y="594"/>
      <point x="188" y="594" type="curve" smooth="yes"/>
      <point x="134" y="594"/>
      <point x="88" y="558"/>
      <point x="88" y="504" type="curve" smooth="yes"/>
      <point x="88" y="468"/>
      <point x="116" y="444"/>
      <point x="166" y="420" type="curve" smooth="yes"/>
      <point x="214" y="396"/>
      <point x="228" y="374"/>
      <point x="228" y="352" type="curve" smooth="yes"/>
      <point x="228" y="314"/>
      <point x="192" y="286"/>
      <point x="148" y="286" type="curve" smooth="yes"/>
      <point x="106" y="286"/>
      <point x="74" y="310"/>
      <point x="52" y="334" type="curve"/>
    </contour>
  </outline>
</glyph>
<glyph name="sampi" format="1">
  <advance width="447"/>
  <outline>
    <contour>
      <point x="290" y="-183" type="curve"/>
      <point x="316" y="-190" type="line"/>
      <point x="340" y="-128"/>
      <point x="366" y="-70"/>
      <point x="378" y="65" type="curve" smooth="yes"/>
      <point x="403" y="309"/>
      <point x="322" y="557"/>
      <point x="143" y="691" type="curve"/>
      <point x="125" y="670" type="line"/>
      <point x="297" y="549"/>
      <point x="376" y="305"/>
      <point x="353" y="64" type="curve" smooth="yes"/>
      <point x="341" y="-62"/>
      <point x="316" y="-122"/>
    </contour>
    <contour>
      <point x="380" y="183" type="curve"/>
      <point x="381" y="209" type="line"/>
      <point x="57" y="96" type="line"/>
      <point x="63" y="73" type="line"/>
      <point x="179" y="114"/>
      <point x="271" y="144"/>
    </contour>
    <contour>
      <point x="344" y="346" type="curve"/>
      <point x="345" y="372" type="line"/>
      <point x="20" y="260" type="line"/>
      <point x="28" y="237" type="line"/>
      <point x="142" y="278"/>
      <point x="236" y="308"/>
    </contour>
  </outline>
</glyph>
<glyph name="schwa.sups" format="1">
  <advance width="312"/>
  <outline>
    <contour>
      <point x="322" y="464" type="curve" smooth="yes"/>
      <point x="322" y="548"/>
      <point x="278" y="594"/>
      <point x="210" y="594" type="curve" smooth="yes"/>
      <point x="172" y="594"/>
      <point x="138" y="580"/>
      <point x="114" y="566" type="curve"/>
      <point x="124" y="544" type="line"/>
      <point x="148" y="558"/>
      <point x="174" y="570"/>
      <point x="208" y="570" type="curve" smooth="yes"/>
      <point x="268" y="570"/>
      <point x="304" y="526"/>
      <point x="294" y="438" type="curve"/>
      <point x="66" y="438" type="line"/>
      <point x="60" y="420"/>
      <point x="56" y="391"/>
      <point x="56" y="374" type="curve" smooth="yes"/>
      <point x="56" y="316"/>
      <point x="84" y="262"/>
      <point x="158" y="262" type="curve" smooth="yes"/>
      <point x="234" y="262"/>
      <point x="322" y="344"/>
    </contour>
    <contour>
      <point x="288" y="414" type="line"/>
      <point x="272" y="338"/>
      <point x="212" y="286"/>
      <point x="160" y="286" type="curve" smooth="yes"/>
      <point x="102" y="286"/>
      <point x="82" y="326"/>
      <point x="82" y="370" type="curve" smooth="yes"/>
      <point x="82" y="384"/>
      <point x="84" y="402"/>
      <point x="86" y="414" type="curve"/>
    </contour>
  </outline>
</glyph>
<glyph name="sha.001" format="1">
  <advance width="680"/>
  <outline>
    <contour>
      <point x="638" y="478" type="line"/>
      <point x="610" y="478" type="line"/>
      <point x="538" y="120" type="line"/>
      <point x="486" y="46"/>
      <point x="422" y="14"/>
      <point x="394" y="14" type="curve" smooth="yes"/>
      <point x="346" y="14"/>
      <point x="328" y="40"/>
      <point x="328" y="94" type="curve" smooth="yes"/>
      <point x="328" y="117"/>
      <point x="332" y="137"/>
      <point x="338" y="172" type="curve" smooth="yes"/>
      <point x="400" y="478" type="line"/>
      <point x="372" y="478" type="line"/>
      <point x="300" y="120" type="line"/>
      <point x="248" y="46"/>
      <point x="184" y="14"/>
      <point x="156" y="14" type="curve" smooth="yes"/>
      <point x="108" y="14"/>
      <point x="90" y="40"/>
      <point x="90" y="94" type="curve" smooth="yes"/>
      <point x="90" y="117"/>
      <point x="94" y="137"/>
      <point x="100" y="172" type="curve" smooth="yes"/>
      <point x="162" y="478" type="line"/>
      <point x="134" y="478" type="line"/>
      <point x="72" y="168" type="line" smooth="yes"/>
      <point x="66" y="136"/>
      <point x="62" y="118"/>
      <point x="62" y="90" type="curve" smooth="yes"/>
      <point x="62" y="28"/>
      <point x="86" y="-12"/>
      <point x="152" y="-12" type="curve" smooth="yes"/>
      <point x="192" y="-12"/>
      <point x="252" y="22"/>
      <point x="302" y="88" type="curve"/>
      <point x="304" y="34"/>
      <point x="324" y="-12"/>
      <point x="390" y="-12" type="curve" smooth="yes"/>
      <point x="430" y="-12"/>
      <point x="488" y="26"/>
      <point x="526" y="78" type="curve"/>
      <point x="530" y="78" type="line"/>
      <point x="518" y="0" type="line"/>
      <point x="542" y="0" type="line"/>
    </contour>
  </outline>
</glyph>
<glyph name="shcha" format="1">
  <advance width="780"/>
  <outline>
    <contour>
      <point x="628" y="0" type="line"/>
      <point x="671" y="0" type="line"/>
      <point x="638" y="-172" type="line"/>
      <point x="660" y="-172" type="line"/>
      <point x="702" y="12" type="line"/>
      <point x="704" y="26" type="line"/>
      <point x="634" y="26" type="line"/>
    </contour>
    <component base="mturned"/>
  </outline>
</glyph>
<glyph name="soft" format="1">
  <advance width="456"/>
  <outline>
    <contour>
      <point x="226" y="-12" type="curve" smooth="yes"/>
      <point x="322" y="-12"/>
      <point x="396" y="58"/>
      <point x="396" y="150" type="curve" smooth="yes"/>
      <point x="396" y="216"/>
      <point x="348" y="278"/>
      <point x="249" y="278" type="curve" smooth="yes"/>
      <point x="216" y="278"/>
      <point x="168" y="268"/>
      <point x="116" y="238" type="curve"/>
      <point x="164" y="478" type="line"/>
      <point x="136" y="478" type="line"/>
      <point x="74" y="172" type="line" smooth="yes"/>
      <point x="72" y="160"/>
      <point x="70" y="146"/>
      <point x="70" y="132" type="curve" smooth="yes"/>
      <point x="70" y="46"/>
      <point x="134" y="-12"/>
    </contour>
    <contour>
      <point x="228" y="14" type="curve" smooth="yes"/>
      <point x="154" y="14"/>
      <point x="98" y="58"/>
      <point x="98" y="138" type="curve" smooth="yes"/>
      <point x="98" y="150"/>
      <point x="102" y="172"/>
      <point x="110" y="210" type="curve"/>
      <point x="164" y="242"/>
      <point x="210" y="252"/>
      <point x="247" y="252" type="curve" smooth="yes"/>
      <point x="328" y="252"/>
      <point x="368" y="204"/>
      <point x="368" y="144" type="curve" smooth="yes"/>
      <point x="368" y="68"/>
      <point x="300" y="14"/>
    </contour>
  </outline>
</glyph>
<glyph name="squareblack" format="1">
  <advance width="262"/>
  <outline>
    <contour>
      <point x="50" y="178" type="line"/>
      <point x="212" y="178" type="line"/>
      <point x="212" y="350" type="line"/>
      <point x="50" y="350" type="line"/>
    </contour>
  </outline>
</glyph>
<glyph name="squareshadow" format="1">
  <advance width="330"/>
  <outline>
    <contour>
      <point x="53" y="138" type="line"/>
      <point x="239" y="138" type="line"/>
      <point x="281" y="188" type="line"/>
      <point x="281" y="380" type="line"/>
      <point x="103" y="380" type="line"/>
      <point x="53" y="336" type="line"/>
    </contour>
    <contour>
      <point x="219" y="314" type="line"/>
      <point x="219" y="168" type="line"/>
      <point x="81" y="168" type="line"/>
      <point x="81" y="314" type="line"/>
    </contour>
  </outline>
</glyph>
<glyph name="summation" format="1">
  <advance width="464"/>
  <outline>
    <contour>
      <point x="30" y="-120" type="line"/>
      <point x="472" y="-120" type="line"/>
      <point x="472" y="-94" type="line"/>
      <point x="67" y="-94" type="line"/>
      <point x="66" y="-90" type="line"/>
      <point x="316" y="262" type="line"/>
      <point x="72" y="610" type="line"/>
      <point x="71" y="614" type="line"/>
      <point x="442" y="614" type="line"/>
      <point x="442" y="640" type="line"/>
      <point x="40" y="640" type="line"/>
      <point x="40" y="614" type="line"/>
      <point x="284" y="268" type="line"/>
      <point x="30" y="-94" type="line"/>
    </contour>
  </outline>
</glyph>
<glyph name="t.sups" format="1">
  <advance width="200"/>
  <outline>
    <contour>
      <point x="88" y="362" type="line" smooth="yes"/>
      <point x="86" y="350"/>
      <point x="84" y="340"/>
      <point x="84" y="330" type="curve" smooth="yes"/>
      <point x="84" y="294"/>
      <point x="98" y="262"/>
      <point x="150" y="262" type="curve" smooth="yes"/>
      <point x="162" y="262"/>
      <point x="184" y="268"/>
      <point x="198" y="274" type="curve"/>
      <point x="192" y="296" type="line"/>
      <point x="182" y="292"/>
      <point x="172" y="286"/>
      <point x="152" y="286" type="curve" smooth="yes"/>
      <point x="124" y="286"/>
      <point x="110" y="304"/>
      <point x="110" y="334" type="curve" smooth="yes"/>
      <point x="110" y="340"/>
      <point x="112" y="352"/>
      <point x="114" y="362" type="curve" smooth="yes"/>
      <point x="154" y="562" type="line"/>
      <point x="246" y="562" type="line"/>
      <point x="250" y="586" type="line"/>
      <point x="158" y="586" type="line"/>
      <point x="176" y="678" type="line"/>
      <point x="154" y="678" type="line"/>
      <point x="132" y="586" type="line"/>
      <point x="82" y="584" type="line"/>
      <point x="78" y="562" type="line"/>
      <point x="128" y="562" type="line"/>
    </contour>
  </outline>
</glyph>
<glyph name="te" format="1">
  <advance width="776"/>
  <outline>
    <component base="m"/>
    <contour>
      <point x="460.0" y="502.0" type="move" name="aboveLC"/>
    </contour>
    <contour>
      <point x="352.0" y="-22.0" type="move" name="belowLC"/>
    </contour>
  </outline>
</glyph>
<glyph name="tildecmb.cap" format="1">
  <advance width="0"/>
  <outline>
    <contour>
      <point x="178" y="716" type="curve" smooth="yes"/>
      <point x="220" y="716"/>
      <point x="252" y="762"/>
      <point x="259" y="800" type="curve"/>
      <point x="237" y="800" type="line"/>
      <point x="226" y="766"/>
      <point x="208" y="740"/>
      <point x="183" y="740" type="curve" smooth="yes"/>
      <point x="144" y="740"/>
      <point x="130" y="802"/>
      <point x="86" y="802" type="curve" smooth="yes"/>
      <point x="44" y="802"/>
      <point x="12" y="756"/>
      <point x="5" y="718" type="curve"/>
      <point x="27" y="718" type="line"/>
      <point x="38" y="752"/>
      <point x="56" y="778"/>
      <point x="81" y="778" type="curve" smooth="yes"/>
      <point x="120" y="778"/>
      <point x="134" y="716"/>
    </contour>
    <contour>
      <point x="136" y="682" type="move" name="_aboveUC"/>
    </contour>
  </outline>
</glyph>
<glyph name="tildecmb" format="1">
  <advance width="0"/>
  <outline>
    <contour>
      <point x="20" y="582" type="line"/>
      <point x="32" y="614"/>
      <point x="50" y="640"/>
      <point x="68" y="640" type="curve" smooth="yes"/>
      <point x="112" y="640"/>
      <point x="116" y="580"/>
      <point x="172" y="580" type="curve" smooth="yes"/>
      <point x="210" y="580"/>
      <point x="234" y="622"/>
      <point x="246" y="662" type="curve"/>
      <point x="224" y="662" type="line"/>
      <point x="212" y="630"/>
      <point x="194" y="604"/>
      <point x="176" y="604" type="curve" smooth="yes"/>
      <point x="132" y="604"/>
      <point x="128" y="664"/>
      <point x="72" y="664" type="curve" smooth="yes"/>
      <point x="34" y="664"/>
      <point x="10" y="622"/>
      <point x="-2" y="582" type="curve"/>
    </contour>
    <contour>
      <point x="104" y="502" type="move" name="_aboveLC"/>
    </contour>
  </outline>
</glyph>
<glyph name="tonoscmb" format="1">
  <advance width="0"/>
  <outline>
    <contour>
      <point x="98" y="562" type="line"/>
      <point x="186" y="724" type="line"/>
      <point x="150" y="724" type="line"/>
      <point x="76" y="562" type="line"/>
    </contour>
    <contour>
      <point x="104.0" y="502.0" type="move" name="_aboveLC"/>
    </contour>
  </outline>
</glyph>
<glyph name="trademark" format="1">
  <advance width="578"/>
  <outline>
    <contour>
      <point x="132" y="370" type="line"/>
      <point x="160" y="370" type="line"/>
      <point x="216" y="650" type="line"/>
      <point x="322" y="650" type="line"/>
      <point x="328" y="676" type="line"/>
      <point x="86" y="676" type="line"/>
      <point x="80" y="650" type="line"/>
      <point x="188" y="650" type="line"/>
    </contour>
    <contour>
      <point x="316" y="370" type="line"/>
      <point x="344" y="370" type="line"/>
      <point x="378" y="540" type="line"/>
      <point x="394" y="642" type="line"/>
      <point x="398" y="642" type="line"/>
      <point x="440" y="418" type="line"/>
      <point x="466" y="418" type="line"/>
      <point x="596" y="642" type="line"/>
      <point x="600" y="642" type="line"/>
      <point x="576" y="540" type="line"/>
      <point x="542" y="370" type="line"/>
      <point x="570" y="370" type="line"/>
      <point x="632" y="676" type="line"/>
      <point x="590" y="676" type="line"/>
      <point x="510" y="544" type="line"/>
      <point x="462" y="456" type="line"/>
      <point x="458" y="456" type="line"/>
      <point x="444" y="544" type="line"/>
      <point x="420" y="676" type="line"/>
      <point x="378" y="676" type="line"/>
    </contour>
  </outline>
</glyph>
<glyph name="triangleblackdown" format="1">
  <advance width="530"/>
  <outline>
    <contour>
      <point x="506" y="510" type="line"/>
      <point x="24" y="510" type="line"/>
      <point x="24" y="508" type="line"/>
      <point x="264" y="38" type="line"/>
      <point x="266" y="38" type="line"/>
      <point x="506" y="508" type="line"/>
    </contour>
  </outline>
</glyph>
<glyph name="triangleblackright" format="1">
  <advance width="534"/>
  <outline>
    <contour>
      <point x="510" y="284" type="line"/>
      <point x="60" y="532" type="line"/>
      <point x="58" y="532" type="line"/>
      <point x="58" y="32" type="line"/>
      <point x="60" y="32" type="line"/>
      <point x="510" y="280" type="line"/>
    </contour>
  </outline>
</glyph>
<glyph name="triangleblackup" format="1">
  <advance width="530"/>
  <outline>
    <contour>
      <point x="264" y="524" type="line"/>
      <point x="24" y="54" type="line"/>
      <point x="24" y="52" type="line"/>
      <point x="506" y="52" type="line"/>
      <point x="506" y="54" type="line"/>
      <point x="266" y="524" type="line"/>
    </contour>
  </outline>
</glyph>
<glyph name="trianglewhitedown" format="1">
  <advance width="530"/>
  <outline>
    <contour>
      <point x="25" y="507" type="line"/>
      <point x="265" y="38" type="line"/>
      <point x="269" y="38" type="line"/>
      <point x="507" y="507" type="line"/>
      <point x="507" y="509" type="line"/>
      <point x="25" y="509" type="line"/>
    </contour>
    <contour>
      <point x="457" y="483" type="line"/>
      <point x="267" y="93" type="line"/>
      <point x="76" y="483" type="line"/>
    </contour>
  </outline>
</glyph>
<glyph name="trianglewhiteleft" format="1">
  <advance width="534"/>
  <outline>
    <contour>
      <point x="474" y="531" type="line"/>
      <point x="472" y="531" type="line"/>
      <point x="21" y="284" type="line"/>
      <point x="21" y="280" type="line"/>
      <point x="472" y="31" type="line"/>
      <point x="474" y="31" type="line"/>
    </contour>
    <contour>
      <point x="79" y="282" type="line"/>
      <point x="445" y="482" type="line"/>
      <point x="445" y="82" type="line"/>
    </contour>
  </outline>
</glyph>
<glyph name="trianglewhiteright" format="1">
  <advance width="534"/>
  <outline>
    <contour>
      <point x="58" y="31" type="line"/>
      <point x="60" y="31" type="line"/>
      <point x="511" y="280" type="line"/>
      <point x="511" y="284" type="line"/>
      <point x="60" y="531" type="line"/>
      <point x="58" y="531" type="line"/>
    </contour>
    <contour>
      <point x="86" y="82" type="line"/>
      <point x="86" y="482" type="line"/>
      <point x="452" y="282" type="line"/>
    </contour>
  </outline>
</glyph>
<glyph name="trianglewhiteup" format="1">
  <advance width="530"/>
  <outline>
    <contour>
      <point x="25" y="53" type="line"/>
      <point x="507" y="53" type="line"/>
      <point x="507" y="55" type="line"/>
      <point x="269" y="523" type="line"/>
      <point x="265" y="523" type="line"/>
      <point x="25" y="55" type="line"/>
    </contour>
    <contour>
      <point x="76" y="79" type="line"/>
      <point x="267" y="469" type="line"/>
      <point x="457" y="79" type="line"/>
    </contour>
  </outline>
</glyph>
<glyph name="ubar" format="1">
  <advance width="504"/>
  <outline>
    <contour>
      <point x="506" y="258" type="line"/>
      <point x="512" y="284" type="line"/>
      <point x="78" y="284" type="line"/>
      <point x="4" y="280" type="line"/>
      <point x="0" y="258" type="line"/>
    </contour>
    <component base="u"/>
  </outline>
</glyph>
<glyph name="ucyr" format="1">
  <advance width="408"/>
  <outline>
    <component base="y"/>
    <contour>
      <point x="248.0" y="502.0" type="move" name="aboveLC"/>
    </contour>
  </outline>
</glyph>
<glyph name="uhorn" format="1">
  <advance width="524"/>
  <outline>
    <contour>
      <point x="534" y="584" type="line"/>
      <point x="538" y="570"/>
      <point x="538" y="564"/>
      <point x="538" y="554" type="curve" smooth="yes"/>
      <point x="538" y="508"/>
      <point x="488" y="484"/>
      <point x="442" y="478" type="curve"/>
      <point x="459" y="455" type="line"/>
      <point x="519" y="464"/>
      <point x="568" y="508"/>
      <point x="568" y="560" type="curve" smooth="yes"/>
      <point x="568" y="572"/>
      <point x="566" y="582"/>
      <point x="560" y="596" type="curve"/>
    </contour>
    <component base="u"/>
    <contour>
      <point x="308" y="502" type="move" name="aboveLC"/>
    </contour>
    <contour>
      <point x="240" y="-22" type="move" name="belowLC"/>
    </contour>
  </outline>
</glyph>
<glyph name="undertie" format="1">
  <advance width="0"/>
  <outline>
    <contour>
      <point x="-495" y="-85" type="curve"/>
      <point x="-510" y="-104" type="line"/>
      <point x="-399" y="-186"/>
      <point x="-271" y="-234"/>
      <point x="-102" y="-234" type="curve" smooth="yes"/>
      <point x="67" y="-234"/>
      <point x="215" y="-186"/>
      <point x="358" y="-104" type="curve"/>
      <point x="351" y="-85" type="line"/>
      <point x="214" y="-165"/>
      <point x="58" y="-208"/>
      <point x="-96" y="-208" type="curve" smooth="yes"/>
      <point x="-251" y="-208"/>
      <point x="-390" y="-165"/>
    </contour>
  </outline>
</glyph>
<glyph name="v.sups" format="1">
  <advance width="282"/>
  <outline>
    <contour>
      <point x="126" y="270" type="line"/>
      <point x="162" y="270" type="line"/>
      <point x="340" y="586" type="line"/>
      <point x="312" y="586" type="line"/>
      <point x="202" y="388" type="line"/>
      <point x="150" y="294" type="line"/>
      <point x="146" y="294" type="line"/>
      <point x="130" y="388" type="line"/>
      <point x="100" y="586" type="line"/>
      <point x="74" y="586" type="line"/>
    </contour>
  </outline>
</glyph>
<glyph name="verticallinelowmod" format="1">
  <advance width="84"/>
  <outline>
    <contour>
      <point x="-8" y="-76" type="line"/>
      <point x="-28" y="-76" type="line"/>
      <point x="-66" y="-244" type="line"/>
      <point x="-36" y="-244" type="line"/>
    </contour>
  </outline>
</glyph>
<glyph name="verticallinemod" format="1">
  <advance width="84"/>
  <outline>
    <contour>
      <point x="98" y="588" type="line"/>
      <point x="118" y="588" type="line"/>
      <point x="156" y="756" type="line"/>
      <point x="126" y="756" type="line"/>
    </contour>
  </outline>
</glyph>
<glyph name="w.sups" format="1">
  <advance width="458"/>
  <outline>
    <contour>
      <point x="114" y="270" type="line"/>
      <point x="150" y="270" type="line"/>
      <point x="244" y="464" type="line"/>
      <point x="286" y="556" type="line"/>
      <point x="288" y="556" type="line"/>
      <point x="294" y="466" type="line"/>
      <point x="314" y="270" type="line"/>
      <point x="352" y="270" type="line"/>
      <point x="506" y="586" type="line"/>
      <point x="480" y="586" type="line"/>
      <point x="382" y="382" type="line"/>
      <point x="340" y="294" type="line"/>
      <point x="336" y="294" type="line"/>
      <point x="326" y="382" type="line"/>
      <point x="308" y="586" type="line"/>
      <point x="276" y="586" type="line"/>
      <point x="178" y="382" type="line"/>
      <point x="138" y="294" type="line"/>
      <point x="134" y="294" type="line"/>
      <point x="126" y="382" type="line"/>
      <point x="106" y="586" type="line"/>
      <point x="80" y="586" type="line"/>
    </contour>
  </outline>
</glyph>
<glyph name="x" format="1">
  <advance width="380"/>
  <outline>
    <contour>
      <point x="-48" y="0" type="line"/>
      <point x="-14" y="0" type="line"/>
      <point x="108" y="138" type="line" smooth="yes"/>
      <point x="138" y="170"/>
      <point x="164" y="198"/>
      <point x="188" y="228" type="curve"/>
      <point x="192" y="228" type="line"/>
      <point x="206" y="198"/>
      <point x="220" y="166"/>
      <point x="232" y="136" type="curve" smooth="yes"/>
      <point x="286" y="0" type="line"/>
      <point x="316" y="0" type="line"/>
      <point x="212" y="246" type="line"/>
      <point x="416" y="478" type="line"/>
      <point x="384" y="478" type="line"/>
      <point x="272" y="352" type="line" smooth="yes"/>
      <point x="248" y="324"/>
      <point x="224" y="298"/>
      <point x="200" y="272" type="curve"/>
      <point x="196" y="272" type="line"/>
      <point x="184" y="300"/>
      <point x="176" y="322"/>
      <point x="164" y="352" type="curve" smooth="yes"/>
      <point x="112" y="478" type="line"/>
      <point x="82" y="478" type="line"/>
      <point x="178" y="252" type="line"/>
    </contour>
    <contour>
      <point x="252" y="504" type="move" name="aboveLC"/>
    </contour>
    <contour>
      <point x="152" y="-22" type="move" name="belowLC"/>
    </contour>
  </outline>
</glyph>
<glyph name="x.sups" format="1">
  <advance width="264"/>
  <outline>
    <contour>
      <point x="8" y="270" type="line"/>
      <point x="40" y="270" type="line"/>
      <point x="118" y="360" type="line"/>
      <point x="164" y="414" type="line"/>
      <point x="168" y="414" type="line"/>
      <point x="196" y="352" type="line"/>
      <point x="232" y="270" type="line"/>
      <point x="258" y="270" type="line"/>
      <point x="188" y="432" type="line"/>
      <point x="320" y="586" type="line"/>
      <point x="288" y="586" type="line"/>
      <point x="220" y="504" type="line"/>
      <point x="178" y="456" type="line"/>
      <point x="174" y="456" type="line"/>
      <point x="148" y="512" type="line"/>
      <point x="116" y="586" type="line"/>
      <point x="90" y="586" type="line"/>
      <point x="156" y="436" type="line"/>
    </contour>
  </outline>
</glyph>
<glyph name="y.sups" format="1">
  <advance width="282"/>
  <outline>
    <contour>
      <point x="22" y="142" type="curve" smooth="yes"/>
      <point x="6" y="142"/>
      <point x="2" y="146"/>
      <point x="-6" y="150" type="curve"/>
      <point x="-18" y="130" type="line"/>
      <point x="-4" y="122"/>
      <point x="4" y="118"/>
      <point x="20" y="118" type="curve" smooth="yes"/>
      <point x="88" y="118"/>
      <point x="122" y="184"/>
      <point x="150" y="236" type="curve" smooth="yes"/>
      <point x="340" y="586" type="line"/>
      <point x="312" y="586" type="line"/>
      <point x="204" y="388" type="line"/>
      <point x="158" y="298" type="line"/>
      <point x="154" y="298" type="line"/>
      <point x="138" y="388" type="line"/>
      <point x="100" y="586" type="line"/>
      <point x="74" y="586" type="line"/>
      <point x="137" y="266" type="line"/>
      <point x="126" y="242" type="line"/>
      <point x="98" y="192"/>
      <point x="66" y="142"/>
    </contour>
  </outline>
</glyph>
<glyph name="yen" format="1">
  <advance width="456"/>
  <outline>
    <contour>
      <point x="114" y="640" type="line"/>
      <point x="212" y="296" type="line"/>
      <point x="62" y="296" type="line"/>
      <point x="56" y="272" type="line"/>
      <point x="218" y="272" type="line"/>
      <point x="204" y="194" type="line"/>
      <point x="42" y="194" type="line"/>
      <point x="36" y="170" type="line"/>
      <point x="198" y="170" type="line"/>
      <point x="164" y="0" type="line"/>
      <point x="192" y="0" type="line"/>
      <point x="226" y="170" type="line"/>
      <point x="388" y="170" type="line"/>
      <point x="394" y="194" type="line"/>
      <point x="232" y="194" type="line"/>
      <point x="246" y="272" type="line"/>
      <point x="408" y="272" type="line"/>
      <point x="414" y="296" type="line"/>
      <point x="264" y="296" type="line"/>
      <point x="494" y="640" type="line"/>
      <point x="464" y="640" type="line"/>
      <point x="332" y="436" type="line"/>
      <point x="300" y="392"/>
      <point x="272" y="348"/>
      <point x="238" y="296" type="curve"/>
      <point x="234" y="296" type="line"/>
      <point x="222" y="348"/>
      <point x="210" y="392"/>
      <point x="198" y="436" type="curve" smooth="yes"/>
      <point x="142" y="640" type="line"/>
    </contour>
  </outline>
</glyph>
<glyph name="yturned" format="1">
  <advance width="408"/>
  <outline>
    <contour>
      <point x="486" y="666" type="curve"/>
      <point x="498" y="690" type="line"/>
      <point x="480" y="698"/>
      <point x="464" y="700"/>
      <point x="454" y="700" type="curve" smooth="yes"/>
      <point x="368" y="700"/>
      <point x="314" y="618"/>
      <point x="276" y="544" type="curve"/>
      <point x="-24" y="0" type="line"/>
      <point x="6" y="0" type="line"/>
      <point x="176" y="312" type="line" smooth="yes"/>
      <point x="202" y="360"/>
      <point x="228" y="408"/>
      <point x="252" y="454" type="curve"/>
      <point x="256" y="454" type="line"/>
      <point x="262" y="410"/>
      <point x="270" y="358"/>
      <point x="278" y="312" type="curve" smooth="yes"/>
      <point x="328" y="0" type="line"/>
      <point x="356" y="0" type="line"/>
      <point x="276" y="488" type="line"/>
      <point x="298" y="532" type="line" smooth="yes"/>
      <point x="340" y="618"/>
      <point x="392" y="674"/>
      <point x="452" y="674" type="curve" smooth="yes"/>
      <point x="464" y="674"/>
      <point x="474" y="672"/>
    </contour>
    <contour>
      <point x="248.0" y="502.0" type="move" name="aboveLC"/>
    </contour>
    <contour>
      <point x="88.0" y="-242.0" type="move" name="belowLC"/>
    </contour>
  </outline>
</glyph>
<glyph name="z.sups" format="1">
  <advance width="262"/>
  <outline>
    <contour>
      <point x="22" y="270" type="line"/>
      <point x="246" y="270" type="line"/>
      <point x="250" y="294" type="line"/>
      <point x="62" y="294" type="line"/>
      <point x="302" y="570" type="line"/>
      <point x="304" y="586" type="line"/>
      <point x="104" y="586" type="line"/>
      <point x="100" y="562" type="line"/>
      <point x="262" y="562" type="line"/>
      <point x="24" y="286" type="line"/>
    </contour>
  </outline>
</glyph>
<glyph name="zero.0s" format="1">
  <advance width="456"/>
  <outline>
    <contour>
      <point x="330" y="118" type="line"/>
      <point x="353" y="126" type="line"/>
      <point x="154" y="526" type="line"/>
      <point x="131" y="518" type="line"/>
    </contour>
    <component base="zero"/>
  </outline>
</glyph>
